<?xml version="1.0" encoding="UTF-8" standalone="yes"?>
<svg xmlns:xlink="http://www.w3.org/1999/xlink" xmlns="http://www.w3.org/2000/svg" focusable="false" preserveAspectRatio="xMinYMin" width="1633" height="451" viewBox="-717.56 -222.47 1632.61  450.62" style="background-color:white"><path d="M-378.8,-32.4  C-378.8,-32.4 ,-378.8,-32.7  -406.8,-32.7 " stroke-width="2" stroke="#345780" stroke-dasharray="" stroke-linecap="" stroke-opacity="1" fill="none" fill-opacity="0" visibility="visible" style="opacity: 1;"/><rect width="74" height="29" rx="0" ry="0" x="-376" y="-102" stroke-width="1" stroke="#FF9933" stroke-dasharray="" stroke-linecap="" fill="#CC0033" stroke-opacity="0.4" fill-opacity="0.4" visibility="hidden" style="opacity: 0;"/><path d="M-416.6,-88.1  C-403.0,-87.6  -389.4,-87.6  -375.8,-87.6   -389.4,-87.2  -403.0,-86.9  -416.6,-87.1  Z" stroke-width="1" stroke="#CC0033" stroke-dasharray="" stroke-linecap="" stroke-opacity="0.4" fill-opacity="0.4" visibility="hidden" style="opacity: 0;"/><path d="M-215.9,-7.9  C-144.0,-4.9  -72.0,-2.5  0.0,0.0   -72.0,-2.1  -144.0,-4.2  -215.9,-6.9  Z" stroke-width="1" stroke="#CC0033" stroke-dasharray="" stroke-linecap="" stroke-opacity="0.4" fill-opacity="0.4" visibility="hidden" style="opacity: 0;"/><path d="M-279.2,-34.4  C-279.2,-34.1 ,-279.2,-32.4  -307.2,-32.4 " stroke-width="2" stroke="#345780" stroke-dasharray="" stroke-linecap="" stroke-opacity="1" fill="none" fill-opacity="0" visibility="visible" style="opacity: 1;"/><path d="M-10.0,0.0  C-10.0,-4.3 ,-10.0,-34.4  -204.6,-34.4 " stroke-width="2" stroke="#E5628C" stroke-dasharray="" stroke-linecap="" stroke-opacity="1" fill="none" fill-opacity="0" visibility="visible" style="opacity: 1;"/><path d="M395.9,19.7  C395.9,39.7 ,395.9,179.8  423.9,179.8 " stroke-width="2" stroke="#345780" stroke-dasharray="" stroke-linecap="" stroke-opacity="1" fill="none" fill-opacity="0" visibility="visible" style="opacity: 1;"/><path d="M395.9,19.7  C395.9,26.3 ,395.9,72.4  423.9,72.4 " stroke-width="2" stroke="#345780" stroke-dasharray="" stroke-linecap="" stroke-opacity="1" fill="none" fill-opacity="0" visibility="visible" style="opacity: 1;"/><path d="M395.9,19.7  C395.9,35.2 ,395.9,144.1  423.9,144.1 " stroke-width="2" stroke="#345780" stroke-dasharray="" stroke-linecap="" stroke-opacity="1" fill="none" fill-opacity="0" visibility="visible" style="opacity: 1;"/><path d="M395.9,19.7  C395.9,30.8 ,395.9,108.5  423.9,108.5 " stroke-width="2" stroke="#345780" stroke-dasharray="" stroke-linecap="" stroke-opacity="1" fill="none" fill-opacity="0" visibility="visible" style="opacity: 1;"/><path d="M-551.7,-32.7  C-551.7,-37.3 ,-551.7,-68.9  -579.7,-68.9 " stroke-width="2" stroke="#345780" stroke-dasharray="" stroke-linecap="" stroke-opacity="1" fill="none" fill-opacity="0" visibility="visible" style="opacity: 1;"/><path d="M-551.7,-32.7  C-551.7,-32.8 ,-551.7,-33.1  -579.7,-33.1 " stroke-width="2" stroke="#345780" stroke-dasharray="" stroke-linecap="" stroke-opacity="1" fill="none" fill-opacity="0" visibility="visible" style="opacity: 1;"/><path d="M-551.7,-32.7  C-551.7,-28.3 ,-551.7,3.0  -579.7,3.0 " stroke-width="2" stroke="#345780" stroke-dasharray="" stroke-linecap="" stroke-opacity="1" fill="none" fill-opacity="0" visibility="visible" style="opacity: 1;"/><path d="M-507.1,56.9  C-507.1,59.1 ,-507.1,74.5  -535.1,74.5 " stroke-width="2" stroke="#345780" stroke-dasharray="" stroke-linecap="" stroke-opacity="1" fill="none" fill-opacity="0" visibility="visible" style="opacity: 1;"/><path d="M-507.1,56.9  C-507.1,54.6 ,-507.1,38.7  -535.1,38.7 " stroke-width="2" stroke="#345780" stroke-dasharray="" stroke-linecap="" stroke-opacity="1" fill="none" fill-opacity="0" visibility="visible" style="opacity: 1;"/><path d="M-260.0,55.2  C-260.0,55.4 ,-260.0,56.9  -288.0,56.9 " stroke-width="2" stroke="#345780" stroke-dasharray="" stroke-linecap="" stroke-opacity="1" fill="none" fill-opacity="0" visibility="visible" style="opacity: 1;"/><path d="M-10.0,0.0  C-10.0,6.9 ,-10.0,55.2  -204.6,55.2 " stroke-width="2" stroke="#F3AE3D" stroke-dasharray="" stroke-linecap="" stroke-opacity="1" fill="none" fill-opacity="0" visibility="visible" style="opacity: 1;"/><path d="M10.0,0.0  C10.0,-22.2 ,10.0,-177.8  204.6,-177.8 " stroke-width="2" stroke="#9B7BEB" stroke-dasharray="" stroke-linecap="" stroke-opacity="1" fill="none" fill-opacity="0" visibility="visible" style="opacity: 1;"/><path d="M455.9,72.4  C455.9,72.4 ,455.9,72.0  483.9,72.0 " stroke-width="2" stroke="#345780" stroke-dasharray="" stroke-linecap="" stroke-opacity="1" fill="none" fill-opacity="0" visibility="visible" style="opacity: 1;"/><path d="M610.1,108.5  C610.1,108.4 ,610.1,108.1  638.1,108.1 " stroke-width="2" stroke="#345780" stroke-dasharray="" stroke-linecap="" stroke-opacity="1" fill="none" fill-opacity="0" visibility="visible" style="opacity: 1;"/><path d="M460.5,108.5  C460.5,108.5 ,460.5,108.5  488.5,108.5 " stroke-width="2" stroke="#345780" stroke-dasharray="" stroke-linecap="" stroke-opacity="1" fill="none" fill-opacity="0" visibility="visible" style="opacity: 1;"/><path d="M395.9,19.7  C395.9,-0.4 ,395.9,-140.5  423.9,-140.5 " stroke-width="2" stroke="#345780" stroke-dasharray="" stroke-linecap="" stroke-opacity="1" fill="none" fill-opacity="0" visibility="visible" style="opacity: 1;"/><path d="M395.9,19.7  C395.9,8.5 ,395.9,-69.8  423.9,-69.8 " stroke-width="2" stroke="#345780" stroke-dasharray="" stroke-linecap="" stroke-opacity="1" fill="none" fill-opacity="0" visibility="visible" style="opacity: 1;"/><path d="M395.9,19.7  C395.9,21.7 ,395.9,36.2  423.9,36.2 " stroke-width="2" stroke="#345780" stroke-dasharray="" stroke-linecap="" stroke-opacity="1" fill="none" fill-opacity="0" visibility="visible" style="opacity: 1;"/><path d="M395.9,19.7  C395.9,17.3 ,395.9,0.8  423.9,0.8 " stroke-width="2" stroke="#345780" stroke-dasharray="" stroke-linecap="" stroke-opacity="1" fill="none" fill-opacity="0" visibility="visible" style="opacity: 1;"/><path d="M395.9,19.7  C395.9,12.9 ,395.9,-34.5  423.9,-34.5 " stroke-width="2" stroke="#345780" stroke-dasharray="" stroke-linecap="" stroke-opacity="1" fill="none" fill-opacity="0" visibility="visible" style="opacity: 1;"/><path d="M395.9,19.7  C395.9,4.1 ,395.9,-105.2  423.9,-105.2 " stroke-width="2" stroke="#345780" stroke-dasharray="" stroke-linecap="" stroke-opacity="1" fill="none" fill-opacity="0" visibility="visible" style="opacity: 1;"/><path d="M10.0,0.0  C10.0,2.5 ,10.0,19.7  204.6,19.7 " stroke-width="2" stroke="#EB5130" stroke-dasharray="" stroke-linecap="" stroke-opacity="1" fill="none" fill-opacity="0" visibility="visible" style="opacity: 1;"/><g preserveAspectRatio="none" focusable="true" width="100" height="100" transform="translate(-172.62,-16.06) scale(1.00,1.00)" test-id="1" visibility="visible" style="opacity: 1;"><rect width="351" height="38" rx="11" ry="11" x="-3" y="-3" stroke-width="1" stroke="#ffffff" stroke-dasharray="" stroke-linecap="" fill="#ffffff" stroke-opacity="0" fill-opacity="0" style="cursor: default;"/><rect width="345" height="32" rx="10" ry="10" x="0" y="0" stroke-width="2" stroke="#FFFFFF" stroke-dasharray="" stroke-linecap="" fill="#FFFFFF" style="cursor: default; opacity: 1;" visibility="visible"/><text font-family="Verdana" font-size="13.4" font-style="normal" font-weight="bold" fill="#000000" style="cursor: default; opacity: 1;" visibility="visible" y="8.03" x="8.35"><tspan dy="1em" x="8.35">Constructions élémentaires - Comparaisons</tspan></text><g preserveAspectRatio="none" focusable="true" width="0" height="21"/></g><g preserveAspectRatio="none" focusable="true" width="100" height="100" transform="translate(202.62,5.00) scale(1.00,1.00)" test-id="2" visibility="visible" style="opacity: 1;"><rect width="195" height="35" rx="11" ry="11" x="-3" y="-3" stroke-width="1" stroke="#ff9776" stroke-dasharray="" stroke-linecap="" fill="#ff9776" stroke-opacity="0" fill-opacity="0" style="cursor: move;"/><rect width="189" height="29" rx="9" ry="9" x="0" y="0" stroke-width="2" stroke="#EB5130" stroke-dasharray="" stroke-linecap="" fill="#EB5130" style="cursor: move; opacity: 1;" visibility="visible"/><text font-family="Verdana" font-size="12.1" font-style="normal" font-weight="normal" fill="#000000" style="cursor: move; opacity: 1;" visibility="visible" y="7.33" x="7.63"><tspan dy="1em" x="7.63">L’instruction conditionnelle if</tspan></text><g preserveAspectRatio="none" focusable="true" width="0" height="19"/><ellipse width="6" height="6" rx="3" ry="3" cx="192" cy="15" stroke-width="2" stroke="#EB5130" stroke-dasharray="" stroke-linecap="" fill="#ffb594" style="cursor: default; opacity: 1;" visibility="visible"/></g><g preserveAspectRatio="none" focusable="true" width="100" height="100" transform="translate(421.88,-117.82) scale(1.00,1.00)" test-id="3" visibility="visible" style="opacity: 1;"><rect width="28" height="31" rx="8" ry="8" x="-3" y="-3" stroke-width="1" stroke="#dcffff" stroke-dasharray="" stroke-linecap="" fill="#dcffff" stroke-opacity="0" fill-opacity="0" style="cursor: move;"/><text font-family="Verdana" font-size="10.8" font-style="normal" font-weight="normal" fill="#000000" style="cursor: move; opacity: 1;" visibility="visible" y="6.33" x="6.59"><tspan dy="1em" x="6.59">&gt;</tspan></text><g preserveAspectRatio="none" focusable="true" width="0" height="16"/><ellipse width="6" height="6" rx="3" ry="3" cx="5" cy="5" stroke-width="2" stroke="#96e3ff" stroke-dasharray="" stroke-linecap="" fill="#faffff" style="cursor: default; opacity: 0;" visibility="hidden"/></g><g preserveAspectRatio="none" focusable="true" width="100" height="100" transform="translate(421.88,-47.16) scale(1.00,1.00)" test-id="4" visibility="visible" style="opacity: 1;"><rect width="28" height="31" rx="8" ry="8" x="-3" y="-3" stroke-width="1" stroke="#dcffff" stroke-dasharray="" stroke-linecap="" fill="#dcffff" stroke-opacity="0" fill-opacity="0" style="cursor: move;"/><text font-family="Verdana" font-size="10.8" font-style="normal" font-weight="normal" fill="#000000" style="cursor: move; opacity: 1;" visibility="visible" y="6.33" x="6.59"><tspan dy="1em" x="6.59">&lt;</tspan></text><g preserveAspectRatio="none" focusable="true" width="0" height="16"/><ellipse width="6" height="6" rx="3" ry="3" cx="25" cy="13" stroke-width="2" stroke="#96e3ff" stroke-dasharray="" stroke-linecap="" fill="#faffff" style="cursor: default; opacity: 0;" visibility="hidden"/></g><g preserveAspectRatio="none" focusable="true" width="100" height="100" transform="translate(421.88,-11.83) scale(1.00,1.00)" test-id="5" visibility="visible" style="opacity: 1;"><rect width="37" height="31" rx="9" ry="9" x="-3" y="-3" stroke-width="1" stroke="#dcffff" stroke-dasharray="" stroke-linecap="" fill="#dcffff" stroke-opacity="0" fill-opacity="0" style="cursor: move;"/><text font-family="Verdana" font-size="10.8" font-style="normal" font-weight="normal" fill="#000000" style="cursor: move; opacity: 1;" visibility="visible" y="6.33" x="6.59"><tspan dy="1em" x="6.59">&gt;=</tspan></text><g preserveAspectRatio="none" focusable="true" width="0" height="16"/><ellipse width="6" height="6" rx="3" ry="3" cx="5" cy="5" stroke-width="2" stroke="#96e3ff" stroke-dasharray="" stroke-linecap="" fill="#faffff" style="cursor: default; opacity: 0;" visibility="hidden"/></g><g preserveAspectRatio="none" focusable="true" width="100" height="100" transform="translate(421.88,23.50) scale(1.00,1.00)" test-id="6" visibility="visible" style="opacity: 1;"><rect width="37" height="31" rx="9" ry="9" x="-3" y="-3" stroke-width="1" stroke="#dcffff" stroke-dasharray="" stroke-linecap="" fill="#dcffff" stroke-opacity="0" fill-opacity="0" style="cursor: move;"/><text font-family="Verdana" font-size="10.8" font-style="normal" font-weight="normal" fill="#000000" style="cursor: move; opacity: 1;" visibility="visible" y="6.33" x="6.59"><tspan dy="1em" x="6.59">&lt;=</tspan></text><g preserveAspectRatio="none" focusable="true" width="0" height="16"/><ellipse width="6" height="6" rx="3" ry="3" cx="5" cy="5" stroke-width="2" stroke="#96e3ff" stroke-dasharray="" stroke-linecap="" fill="#faffff" style="cursor: default; opacity: 0;" visibility="hidden"/></g><g preserveAspectRatio="none" focusable="true" width="100" height="100" transform="translate(421.88,-82.49) scale(1.00,1.00)" test-id="7" visibility="visible" style="opacity: 1;"><rect width="37" height="31" rx="9" ry="9" x="-3" y="-3" stroke-width="1" stroke="#dcffff" stroke-dasharray="" stroke-linecap="" fill="#dcffff" stroke-opacity="0" fill-opacity="0" style="cursor: move;"/><text font-family="Verdana" font-size="10.8" font-style="normal" font-weight="normal" fill="#000000" style="cursor: move; opacity: 1;" visibility="visible" y="6.33" x="6.59"><tspan dy="1em" x="6.59">==</tspan></text><g preserveAspectRatio="none" focusable="true" width="0" height="16"/><ellipse width="6" height="6" rx="3" ry="3" cx="5" cy="5" stroke-width="2" stroke="#96e3ff" stroke-dasharray="" stroke-linecap="" fill="#faffff" style="cursor: default; opacity: 0;" visibility="hidden"/></g><g preserveAspectRatio="none" focusable="true" width="100" height="100" transform="translate(421.88,-153.15) scale(1.00,1.00)" test-id="8" visibility="visible" style="opacity: 1;"><rect width="32" height="31" rx="9" ry="9" x="-3" y="-3" stroke-width="1" stroke="#dcffff" stroke-dasharray="" stroke-linecap="" fill="#dcffff" stroke-opacity="0" fill-opacity="0" style="cursor: move;"/><text font-family="Verdana" font-size="10.8" font-style="normal" font-weight="normal" fill="#000000" style="cursor: move; opacity: 1;" visibility="visible" y="6.33" x="6.59"><tspan dy="1em" x="6.59">!=</tspan></text><g preserveAspectRatio="none" focusable="true" width="0" height="16"/><ellipse width="6" height="6" rx="3" ry="3" cx="5" cy="5" stroke-width="2" stroke="#96e3ff" stroke-dasharray="" stroke-linecap="" fill="#faffff" style="cursor: default; opacity: 0;" visibility="hidden"/></g><g preserveAspectRatio="none" focusable="true" width="100" height="100" transform="translate(421.88,95.79) scale(1.00,1.00)" test-id="9" visibility="visible" style="opacity: 1;"><rect width="41" height="31" rx="9" ry="9" x="-3" y="-3" stroke-width="1" stroke="#dcffff" stroke-dasharray="" stroke-linecap="" fill="#dcffff" stroke-opacity="0" fill-opacity="0" style="cursor: move;"/><text font-family="Verdana" font-size="10.8" font-style="normal" font-weight="normal" fill="#000000" style="cursor: move; opacity: 1;" visibility="visible" y="6.33" x="6.59"><tspan dy="1em" x="6.59">else</tspan></text><g preserveAspectRatio="none" focusable="true" width="0" height="16"/><ellipse width="6" height="6" rx="3" ry="3" cx="38" cy="13" stroke-width="2" stroke="#96e3ff" stroke-dasharray="" stroke-linecap="" fill="#faffff" style="cursor: default; opacity: 1;" visibility="visible"/></g><g preserveAspectRatio="none" focusable="true" width="100" height="100" transform="translate(486.52,95.79) scale(1.00,1.00)" test-id="10" visibility="visible" style="opacity: 1;"><rect width="126" height="31" rx="9" ry="9" x="-3" y="-3" stroke-width="1" stroke="#dcffff" stroke-dasharray="" stroke-linecap="" fill="#dcffff" stroke-opacity="0" fill-opacity="0" style="cursor: move;"/><text font-family="Verdana" font-size="10.8" font-style="normal" font-weight="normal" fill="#000000" style="cursor: move; opacity: 1;" visibility="visible" y="6.33" x="6.59"><tspan dy="1em" x="6.59">ultime branche else</tspan></text><g preserveAspectRatio="none" focusable="true" width="0" height="16"/><ellipse width="6" height="6" rx="3" ry="3" cx="123" cy="13" stroke-width="2" stroke="#96e3ff" stroke-dasharray="" stroke-linecap="" fill="#faffff" style="cursor: default; opacity: 1;" visibility="visible"/></g><g preserveAspectRatio="none" focusable="true" width="100" height="100" transform="translate(636.05,95.09) scale(1.00,1.00)" test-id="11" visibility="visible" style="opacity: 1;"><rect width="249" height="32" rx="10" ry="10" x="-3" y="-3" stroke-width="1" stroke="#dcffff" stroke-dasharray="" stroke-linecap="" fill="#dcffff" stroke-opacity="0" fill-opacity="0" style="cursor: move;"/><text font-family="Verdana" font-size="10.8" font-style="normal" font-weight="normal" fill="#000000" style="cursor: move; opacity: 1;" visibility="visible" y="6.51" x="6.77"><tspan dy="1em" x="6.77">Lorsque toutes les autres ont été écartées</tspan></text><g preserveAspectRatio="none" focusable="true" width="0" height="17"/><ellipse width="6" height="6" rx="3" ry="3" cx="5" cy="5" stroke-width="2" stroke="#96e3ff" stroke-dasharray="" stroke-linecap="" fill="#faffff" style="cursor: default; opacity: 0;" visibility="hidden"/></g><g preserveAspectRatio="none" focusable="true" width="100" height="100" transform="translate(421.88,59.76) scale(1.00,1.00)" test-id="12" visibility="visible" style="opacity: 1;"><rect width="36" height="31" rx="9" ry="9" x="-3" y="-3" stroke-width="1" stroke="#dcffff" stroke-dasharray="" stroke-linecap="" fill="#dcffff" stroke-opacity="0" fill-opacity="0" style="cursor: move;"/><text font-family="Verdana" font-size="10.8" font-style="normal" font-weight="normal" fill="#000000" style="cursor: move; opacity: 1;" visibility="visible" y="6.33" x="6.59"><tspan dy="1em" x="6.59">elif</tspan></text><g preserveAspectRatio="none" focusable="true" width="0" height="16"/><ellipse width="6" height="6" rx="3" ry="3" cx="33" cy="13" stroke-width="2" stroke="#96e3ff" stroke-dasharray="" stroke-linecap="" fill="#faffff" style="cursor: default; opacity: 1;" visibility="visible"/></g><g preserveAspectRatio="none" focusable="true" width="100" height="100" transform="translate(481.92,58.83) scale(1.00,1.00)" test-id="13" visibility="visible" style="opacity: 1;"><rect width="394" height="32" rx="10" ry="10" x="-3" y="-3" stroke-width="1" stroke="#dcffff" stroke-dasharray="" stroke-linecap="" fill="#dcffff" stroke-opacity="0" fill-opacity="0" style="cursor: move;"/><text font-family="Verdana" font-size="10.8" font-style="normal" font-weight="normal" fill="#000000" style="cursor: move; opacity: 1;" visibility="visible" y="6.57" x="6.83"><tspan dy="1em" x="6.83">chaque branche suivante peut être ajoutée avec sa propre condition </tspan></text><g preserveAspectRatio="none" focusable="true" width="0" height="17"/><ellipse width="6" height="6" rx="3" ry="3" cx="5" cy="5" stroke-width="2" stroke="#96e3ff" stroke-dasharray="" stroke-linecap="" fill="#faffff" style="cursor: default; opacity: 0;" visibility="hidden"/></g><g preserveAspectRatio="none" focusable="true" width="100" height="100" transform="translate(202.62,-192.47) scale(1.00,1.00)" test-id="14" visibility="visible" style="opacity: 1;"><rect width="354" height="35" rx="11" ry="11" x="-3" y="-3" stroke-width="1" stroke="#e1c1ff" stroke-dasharray="" stroke-linecap="" fill="#e1c1ff" stroke-opacity="0" fill-opacity="0" style="cursor: move;"/><rect width="348" height="29" rx="9" ry="9" x="0" y="0" stroke-width="2" stroke="#9B7BEB" stroke-dasharray="" stroke-linecap="" fill="#9B7BEB" style="cursor: move; opacity: 1;" visibility="visible"/><text font-family="Verdana" font-size="12.1" font-style="normal" font-weight="normal" fill="#000000" style="cursor: move; opacity: 1;" visibility="visible" y="7.33" x="7.63"><tspan dy="1em" x="7.63">L’ordre dans lequel apparaissent les conditions compte</tspan></text><g preserveAspectRatio="none" focusable="true" width="0" height="19"/><ellipse width="6" height="6" rx="3" ry="3" cx="5" cy="5" stroke-width="2" stroke="#9B7BEB" stroke-dasharray="" stroke-linecap="" fill="#ffdfff" style="cursor: default; opacity: 0;" visibility="hidden"/></g><g preserveAspectRatio="none" focusable="true" width="100" height="100" transform="translate(-255.96,40.55) scale(1.00,1.00)" test-id="15" visibility="visible" style="opacity: 1;"><rect width="59" height="35" rx="11" ry="11" x="-3" y="-3" stroke-width="1" stroke="#fff483" stroke-dasharray="" stroke-linecap="" fill="#fff483" stroke-opacity="0" fill-opacity="0" style="cursor: move;"/><rect width="53" height="29" rx="9" ry="9" x="0" y="0" stroke-width="2" stroke="#F3AE3D" stroke-dasharray="" stroke-linecap="" fill="#F3AE3D" style="cursor: move; opacity: 1;" visibility="visible"/><text font-family="Verdana" font-size="12.1" font-style="normal" font-weight="normal" fill="#000000" style="cursor: move; opacity: 1;" visibility="visible" y="7.33" x="7.63"><tspan dy="1em" x="7.63">Erreur</tspan></text><g preserveAspectRatio="none" focusable="true" width="0" height="19"/><ellipse width="6" height="6" rx="3" ry="3" cx="-3" cy="15" stroke-width="2" stroke="#F3AE3D" stroke-dasharray="" stroke-linecap="" fill="#ffffa1" style="cursor: default; opacity: 1;" visibility="visible"/></g><g preserveAspectRatio="none" focusable="true" width="100" height="100" transform="translate(-503.12,43.84) scale(1.00,1.00)" test-id="16" visibility="visible" style="opacity: 1;"><rect width="223" height="32" rx="10" ry="10" x="-3" y="-3" stroke-width="1" stroke="#dcffff" stroke-dasharray="" stroke-linecap="" fill="#dcffff" stroke-opacity="0" fill-opacity="0" style="cursor: move;"/><text font-family="Verdana" font-size="10.8" font-style="normal" font-weight="normal" fill="#000000" style="cursor: move; opacity: 1;" visibility="visible" y="6.51" x="6.77"><tspan dy="1em" x="6.77">Les symboles = et == sont différents</tspan></text><g preserveAspectRatio="none" focusable="true" width="0" height="17"/><ellipse width="6" height="6" rx="3" ry="3" cx="-3" cy="13" stroke-width="2" stroke="#96e3ff" stroke-dasharray="" stroke-linecap="" fill="#faffff" style="cursor: default; opacity: 1;" visibility="visible"/></g><g preserveAspectRatio="none" focusable="true" width="100" height="100" transform="translate(-607.57,26.06) scale(1.00,1.00)" test-id="17" visibility="visible" style="opacity: 1;"><rect width="80" height="31" rx="9" ry="9" x="-3" y="-3" stroke-width="1" stroke="#dcffff" stroke-dasharray="" stroke-linecap="" fill="#dcffff" stroke-opacity="0" fill-opacity="0" style="cursor: move;"/><text font-family="Verdana" font-size="10.8" font-style="normal" font-weight="normal" fill="#000000" style="cursor: move; opacity: 1;" visibility="visible" y="6.33" x="6.59"><tspan dy="1em" x="6.59">affectation </tspan></text><g preserveAspectRatio="none" focusable="true" width="0" height="16"/><ellipse width="6" height="6" rx="3" ry="3" cx="5" cy="5" stroke-width="2" stroke="#96e3ff" stroke-dasharray="" stroke-linecap="" fill="#faffff" style="cursor: default; opacity: 0;" visibility="hidden"/></g><g preserveAspectRatio="none" focusable="true" width="100" height="100" transform="translate(-620.83,61.39) scale(1.00,1.00)" test-id="18" visibility="visible" style="opacity: 1;"><rect width="94" height="32" rx="10" ry="10" x="-3" y="-3" stroke-width="1" stroke="#dcffff" stroke-dasharray="" stroke-linecap="" fill="#dcffff" stroke-opacity="0" fill-opacity="0" style="cursor: move;"/><text font-family="Verdana" font-size="10.8" font-style="normal" font-weight="normal" fill="#000000" style="cursor: move; opacity: 1;" visibility="visible" y="6.57" x="6.83"><tspan dy="1em" x="6.83">test d’égalité </tspan></text><g preserveAspectRatio="none" focusable="true" width="0" height="17"/><ellipse width="6" height="6" rx="3" ry="3" cx="5" cy="5" stroke-width="2" stroke="#96e3ff" stroke-dasharray="" stroke-linecap="" fill="#faffff" style="cursor: default; opacity: 0;" visibility="hidden"/></g><g preserveAspectRatio="none" focusable="true" width="100" height="100" transform="translate(-547.74,-45.76) scale(1.00,1.00)" test-id="20" visibility="visible" style="opacity: 1;"><rect width="149" height="32" rx="10" ry="10" x="-3" y="-3" stroke-width="1" stroke="#dcffff" stroke-dasharray="" stroke-linecap="" fill="#dcffff" stroke-opacity="0" fill-opacity="0" style="cursor: move;"/><text font-family="Verdana" font-size="10.8" font-style="normal" font-weight="normal" fill="#000000" style="cursor: move; opacity: 1;" visibility="visible" y="6.51" x="6.77"><tspan dy="1em" x="6.77">Expressions booléennes</tspan></text><g preserveAspectRatio="none" focusable="true" width="0" height="17"/><ellipse width="6" height="6" rx="3" ry="3" cx="-3" cy="13" stroke-width="2" stroke="#96e3ff" stroke-dasharray="" stroke-linecap="" fill="#faffff" style="cursor: default; opacity: 1;" visibility="visible"/></g><g preserveAspectRatio="none" focusable="true" width="100" height="100" transform="translate(-687.56,-9.96) scale(1.00,1.00)" test-id="22" visibility="visible" style="opacity: 1;"><rect width="116" height="32" rx="10" ry="10" x="-3" y="-3" stroke-width="1" stroke="#dcffff" stroke-dasharray="" stroke-linecap="" fill="#dcffff" stroke-opacity="0" fill-opacity="0" style="cursor: move;"/><text font-family="Verdana" font-size="10.8" font-style="normal" font-weight="normal" fill="#000000" style="cursor: move; opacity: 1;" visibility="visible" y="6.51" x="6.77"><tspan dy="1em" x="6.77">Les comparaisons</tspan></text><g preserveAspectRatio="none" focusable="true" width="0" height="17"/><ellipse width="6" height="6" rx="3" ry="3" cx="5" cy="5" stroke-width="2" stroke="#96e3ff" stroke-dasharray="" stroke-linecap="" fill="#faffff" style="cursor: default; opacity: 0;" visibility="hidden"/></g><g preserveAspectRatio="none" focusable="true" width="100" height="100" transform="translate(-672.34,-46.23) scale(1.00,1.00)" test-id="23" visibility="visible" style="opacity: 1;"><rect width="101" height="32" rx="10" ry="10" x="-3" y="-3" stroke-width="1" stroke="#dcffff" stroke-dasharray="" stroke-linecap="" fill="#dcffff" stroke-opacity="0" fill-opacity="0" style="cursor: move;"/><text font-family="Verdana" font-size="10.8" font-style="normal" font-weight="normal" fill="#000000" style="cursor: move; opacity: 1;" visibility="visible" y="6.57" x="6.83"><tspan dy="1em" x="6.83">Tests d'égalité </tspan></text><g preserveAspectRatio="none" focusable="true" width="0" height="17"/><ellipse width="6" height="6" rx="3" ry="3" cx="5" cy="5" stroke-width="2" stroke="#96e3ff" stroke-dasharray="" stroke-linecap="" fill="#faffff" style="cursor: default; opacity: 0;" visibility="hidden"/></g><g preserveAspectRatio="none" focusable="true" width="100" height="100" transform="translate(-662.57,-81.56) scale(1.00,1.00)" test-id="24" visibility="visible" style="opacity: 1;"><rect width="91" height="31" rx="9" ry="9" x="-3" y="-3" stroke-width="1" stroke="#dcffff" stroke-dasharray="" stroke-linecap="" fill="#dcffff" stroke-opacity="0" fill-opacity="0" style="cursor: move;"/><text font-family="Verdana" font-size="10.8" font-style="normal" font-weight="normal" fill="#000000" style="cursor: move; opacity: 1;" visibility="visible" y="6.33" x="6.59"><tspan dy="1em" x="6.59">True ou False</tspan></text><g preserveAspectRatio="none" focusable="true" width="0" height="16"/><ellipse width="6" height="6" rx="3" ry="3" cx="5" cy="5" stroke-width="2" stroke="#96e3ff" stroke-dasharray="" stroke-linecap="" fill="#faffff" style="cursor: default; opacity: 0;" visibility="hidden"/></g><g preserveAspectRatio="none" focusable="true" width="100" height="100" transform="translate(421.88,131.12) scale(1.00,1.00)" test-id="25" visibility="visible" style="opacity: 1;"><rect width="166" height="32" rx="10" ry="10" x="-3" y="-3" stroke-width="1" stroke="#dcffff" stroke-dasharray="" stroke-linecap="" fill="#dcffff" stroke-opacity="0" fill-opacity="0" style="cursor: move;"/><text font-family="Verdana" font-size="10.8" font-style="normal" font-weight="normal" fill="#000000" style="cursor: move; opacity: 1;" visibility="visible" y="6.51" x="6.77"><tspan dy="1em" x="6.77">Conditionnelles imbriquées</tspan></text><g preserveAspectRatio="none" focusable="true" width="0" height="17"/><ellipse width="6" height="6" rx="3" ry="3" cx="5" cy="5" stroke-width="2" stroke="#96e3ff" stroke-dasharray="" stroke-linecap="" fill="#faffff" style="cursor: default; opacity: 0;" visibility="hidden"/></g><g preserveAspectRatio="none" focusable="true" width="100" height="100" transform="translate(421.88,167.15) scale(1.00,1.00)" test-id="26" visibility="visible" style="opacity: 1;"><rect width="175" height="31" rx="9" ry="9" x="-3" y="-3" stroke-width="1" stroke="#dcffff" stroke-dasharray="" stroke-linecap="" fill="#dcffff" stroke-opacity="0" fill-opacity="0" style="cursor: move;"/><text font-family="Verdana" font-size="10.8" font-style="normal" font-weight="normal" fill="#000000" style="cursor: move; opacity: 1;" visibility="visible" y="6.33" x="6.59"><tspan dy="1em" x="6.59">Indentation du bloc de code </tspan></text><g preserveAspectRatio="none" focusable="true" width="0" height="16"/><ellipse width="6" height="6" rx="3" ry="3" cx="5" cy="5" stroke-width="2" stroke="#96e3ff" stroke-dasharray="" stroke-linecap="" fill="#faffff" style="cursor: default; opacity: 0;" visibility="hidden"/></g><g preserveAspectRatio="none" focusable="true" width="100" height="100" transform="translate(-275.24,-49.06) scale(1.00,1.00)" test-id="27" visibility="visible" style="opacity: 1;"><rect width="79" height="35" rx="11" ry="11" x="-3" y="-3" stroke-width="1" stroke="#ffa8d2" stroke-dasharray="" stroke-linecap="" fill="#ffa8d2" stroke-opacity="0" fill-opacity="0" style="cursor: move;"/><rect width="73" height="29" rx="9" ry="9" x="0" y="0" stroke-width="2" stroke="#E5628C" stroke-dasharray="" stroke-linecap="" fill="#E5628C" style="cursor: move; opacity: 1;" visibility="visible"/><text font-family="Verdana" font-size="12.1" font-style="normal" font-weight="normal" fill="#000000" style="cursor: move; opacity: 1;" visibility="visible" y="7.33" x="7.63"><tspan dy="1em" x="7.63">Condition</tspan></text><g preserveAspectRatio="none" focusable="true" width="0" height="19"/><ellipse width="6" height="6" rx="3" ry="3" cx="-3" cy="15" stroke-width="2" stroke="#E5628C" stroke-dasharray="" stroke-linecap="" fill="#ffc6f0" style="cursor: default; opacity: 1;" visibility="visible"/></g><g preserveAspectRatio="none" focusable="true" width="100" height="100" transform="translate(-374.78,-45.06) scale(1.00,1.00)" test-id="28" visibility="visible" style="opacity: 1;"><rect width="76" height="31" rx="9" ry="9" x="-3" y="-3" stroke-width="1" stroke="#dcffff" stroke-dasharray="" stroke-linecap="" fill="#dcffff" stroke-opacity="0" fill-opacity="0" style="cursor: move;"/><text font-family="Verdana" font-size="10.8" font-style="normal" font-weight="normal" fill="#000000" style="cursor: move; opacity: 1;" visibility="visible" y="6.33" x="6.59"><tspan dy="1em" x="6.59">Evaluation</tspan></text><g preserveAspectRatio="none" focusable="true" width="0" height="16"/><ellipse width="6" height="6" rx="3" ry="3" cx="-3" cy="13" stroke-width="2" stroke="#96e3ff" stroke-dasharray="" stroke-linecap="" fill="#faffff" style="cursor: default; opacity: 1;" visibility="visible"/></g><rect width="50" height="6" rx="0" ry="0" x="-465" y="-91" stroke-width="1" stroke="#FF9933" stroke-dasharray="" stroke-linecap="" fill="#CC0033" stroke-opacity="0.4" fill-opacity="0.4" visibility="hidden" style="opacity: 0;"/></svg>