<?xml version="1.0" encoding="UTF-8" standalone="yes"?>
<svg xmlns:xlink="http://www.w3.org/1999/xlink" xmlns="http://www.w3.org/2000/svg" focusable="false" preserveAspectRatio="xMinYMin" width="863" height="366" viewBox="-206.21 -180.18 862.5600000000001  366.1" style="background-color:white"><path d="M10.0,0.0  C10.0,-16.9 ,10.0,-135.5  208.2,-135.5 " stroke-width="2" stroke="#9B7BEB" stroke-dasharray="" stroke-linecap="" stroke-opacity="1" fill="none" fill-opacity="0" visibility="visible" style="opacity: 1;"/><path d="M436.1,-96.2  C436.1,-95.9 ,436.1,-94.2  464.1,-94.2 " stroke-width="2" stroke="#345780" stroke-dasharray="" stroke-linecap="" stroke-opacity="1" fill="none" fill-opacity="0" visibility="visible" style="opacity: 1;"/><rect width="356" height="36" rx="0" ry="0" x="-178" y="-17" stroke-width="1" stroke="#FF9933" stroke-dasharray="" stroke-linecap="" fill="#CC0033" stroke-opacity="0.4" fill-opacity="0.4" visibility="hidden" style="opacity: 0;"/><path d="M491.0,-114.4  C471.7,-114.5  452.4,-115.2  433.1,-115.9   452.4,-114.8  471.7,-113.8  491.0,-113.4  Z" stroke-width="1" stroke="#CC0033" stroke-dasharray="" stroke-linecap="" stroke-opacity="0.4" fill-opacity="0.4" visibility="hidden" style="opacity: 0;"/><path d="M-213.2,-0.5  C-142.1,0.0  -71.1,0.0  0.0,0.0   -71.1,0.4  -142.1,0.7  -213.2,0.5  Z" stroke-width="1" stroke="#CC0033" stroke-dasharray="" stroke-linecap="" stroke-opacity="0.4" fill-opacity="0.4" visibility="hidden" style="opacity: 0;"/><path d="M10.0,0.0  C10.0,-12.0 ,10.0,-96.2  208.2,-96.2 " stroke-width="2" stroke="#EB5130" stroke-dasharray="" stroke-linecap="" stroke-opacity="1" fill="none" fill-opacity="0" visibility="visible" style="opacity: 1;"/><path d="M413.3,40.3  C413.3,42.5 ,413.3,58.4  441.3,58.4 " stroke-width="2" stroke="#345780" stroke-dasharray="" stroke-linecap="" stroke-opacity="1" fill="none" fill-opacity="0" visibility="visible" style="opacity: 1;"/><path d="M402.6,-36.3  C402.6,-38.5 ,402.6,-53.9  430.6,-53.9 " stroke-width="2" stroke="#345780" stroke-dasharray="" stroke-linecap="" stroke-opacity="1" fill="none" fill-opacity="0" visibility="visible" style="opacity: 1;"/><path d="M402.6,-36.3  C402.6,-33.4 ,402.6,-13.7  430.6,-13.7 " stroke-width="2" stroke="#345780" stroke-dasharray="" stroke-linecap="" stroke-opacity="1" fill="none" fill-opacity="0" visibility="visible" style="opacity: 1;"/><path d="M10.0,0.0  C10.0,-4.5 ,10.0,-36.3  208.2,-36.3 " stroke-width="2" stroke="#F8D651" stroke-dasharray="" stroke-linecap="" stroke-opacity="1" fill="none" fill-opacity="0" visibility="visible" style="opacity: 1;"/><path d="M10.0,0.0  C10.0,5.0 ,10.0,40.3  208.2,40.3 " stroke-width="2" stroke="#6BC953" stroke-dasharray="" stroke-linecap="" stroke-opacity="1" fill="none" fill-opacity="0" visibility="visible" style="opacity: 1;"/><path d="M413.3,40.3  C413.3,38.0 ,413.3,22.1  441.3,22.1 " stroke-width="2" stroke="#345780" stroke-dasharray="" stroke-linecap="" stroke-opacity="1" fill="none" fill-opacity="0" visibility="visible" style="opacity: 1;"/><path d="M10.0,0.0  C10.0,12.0 ,10.0,96.2  208.2,96.2 " stroke-width="2" stroke="#4CA6F7" stroke-dasharray="" stroke-linecap="" stroke-opacity="1" fill="none" fill-opacity="0" visibility="visible" style="opacity: 1;"/><path d="M355.6,135.5  C355.6,135.7 ,355.6,137.0  383.6,137.0 " stroke-width="2" stroke="#345780" stroke-dasharray="" stroke-linecap="" stroke-opacity="1" fill="none" fill-opacity="0" visibility="visible" style="opacity: 1;"/><path d="M10.0,0.0  C10.0,16.9 ,10.0,135.5  208.2,135.5 " stroke-width="2" stroke="#9B7BEB" stroke-dasharray="" stroke-linecap="" stroke-opacity="1" fill="none" fill-opacity="0" visibility="visible" style="opacity: 1;"/><g preserveAspectRatio="none" focusable="true" width="100" height="100" transform="translate(-176.21,-16.00) scale(1.00,1.00)" test-id="1" visibility="visible" style="opacity: 1;"><rect width="358" height="38" rx="11" ry="11" x="-3" y="-3" stroke-width="1" stroke="#ffffff" stroke-dasharray="" stroke-linecap="" fill="#ffffff" stroke-opacity="0" fill-opacity="0" style="cursor: default;"/><rect width="352" height="32" rx="10" ry="10" x="0" y="0" stroke-width="2" stroke="#FFFFFF" stroke-dasharray="" stroke-linecap="" fill="#FFFFFF" style="cursor: default; opacity: 1;" visibility="visible"/><text font-family="Verdana" font-size="13.4" font-style="normal" font-weight="bold" fill="#000000" style="cursor: default; opacity: 1;" visibility="visible" y="8.00" x="8.32"><tspan dy="1em" x="8.32">Constructions élémentaires - Les boucles for</tspan></text><g preserveAspectRatio="none" focusable="true" width="0" height="21"/></g><g preserveAspectRatio="none" focusable="true" width="100" height="100" transform="translate(206.21,120.85) scale(1.00,1.00)" test-id="4" visibility="visible" style="opacity: 1;"><rect width="151" height="35" rx="11" ry="11" x="-3" y="-3" stroke-width="1" stroke="#e1c1ff" stroke-dasharray="" stroke-linecap="" fill="#e1c1ff" stroke-opacity="0" fill-opacity="0" style="cursor: move;"/><rect width="145" height="29" rx="9" ry="9" x="0" y="0" stroke-width="2" stroke="#9B7BEB" stroke-dasharray="" stroke-linecap="" fill="#9B7BEB" style="cursor: move; opacity: 1;" visibility="visible"/><text font-family="Verdana" font-size="12.1" font-style="normal" font-weight="normal" fill="#000000" style="cursor: move; opacity: 1;" visibility="visible" y="7.33" x="7.63"><tspan dy="1em" x="7.63">Boucle bornée simple</tspan></text><g preserveAspectRatio="none" focusable="true" width="0" height="19"/><ellipse width="6" height="6" rx="3" ry="3" cx="148" cy="15" stroke-width="2" stroke="#9B7BEB" stroke-dasharray="" stroke-linecap="" fill="#ffdfff" style="cursor: default; opacity: 1;" visibility="visible"/></g><g preserveAspectRatio="none" focusable="true" width="100" height="100" transform="translate(381.59,123.92) scale(1.00,1.00)" test-id="5" visibility="visible" style="opacity: 1;"><rect width="119" height="32" rx="10" ry="10" x="-3" y="-3" stroke-width="1" stroke="#dcffff" stroke-dasharray="" stroke-linecap="" fill="#dcffff" stroke-opacity="0" fill-opacity="0" style="cursor: move;"/><text font-family="Verdana" font-size="10.8" font-style="normal" font-weight="normal" fill="#000000" style="cursor: move; opacity: 1;" visibility="visible" y="6.57" x="6.83"><tspan dy="1em" x="6.83">for _ in range(3) :</tspan></text><g preserveAspectRatio="none" focusable="true" width="0" height="17"/><ellipse width="6" height="6" rx="3" ry="3" cx="5" cy="5" stroke-width="2" stroke="#96e3ff" stroke-dasharray="" stroke-linecap="" fill="#faffff" style="cursor: default; opacity: 0;" visibility="hidden"/></g><g preserveAspectRatio="none" focusable="true" width="100" height="100" transform="translate(206.21,81.52) scale(1.00,1.00)" test-id="8" visibility="visible" style="opacity: 1;"><rect width="148" height="35" rx="11" ry="11" x="-3" y="-3" stroke-width="1" stroke="#92ecff" stroke-dasharray="" stroke-linecap="" fill="#92ecff" stroke-opacity="0" fill-opacity="0" style="cursor: move;"/><rect width="142" height="29" rx="9" ry="9" x="0" y="0" stroke-width="2" stroke="#4CA6F7" stroke-dasharray="" stroke-linecap="" fill="#4CA6F7" style="cursor: move; opacity: 1;" visibility="visible"/><text font-family="Verdana" font-size="12.1" font-style="normal" font-weight="normal" fill="#000000" style="cursor: move; opacity: 1;" visibility="visible" y="7.33" x="7.63"><tspan dy="1em" x="7.63"> l’indentation du code</tspan></text><g preserveAspectRatio="none" focusable="true" width="0" height="19"/><ellipse width="6" height="6" rx="3" ry="3" cx="5" cy="5" stroke-width="2" stroke="#4CA6F7" stroke-dasharray="" stroke-linecap="" fill="#b0ffff" style="cursor: default; opacity: 0;" visibility="hidden"/></g><g preserveAspectRatio="none" focusable="true" width="100" height="100" transform="translate(439.35,9.00) scale(1.00,1.00)" test-id="9" visibility="visible" style="opacity: 1;"><rect width="122" height="32" rx="10" ry="10" x="-3" y="-3" stroke-width="1" stroke="#dcffff" stroke-dasharray="" stroke-linecap="" fill="#dcffff" stroke-opacity="0" fill-opacity="0" style="cursor: move;"/><text font-family="Verdana" font-size="10.8" font-style="normal" font-weight="normal" fill="#000000" style="cursor: move; opacity: 1;" visibility="visible" y="6.57" x="6.83"><tspan dy="1em" x="6.83">for i in range(10) :</tspan></text><g preserveAspectRatio="none" focusable="true" width="0" height="17"/><ellipse width="6" height="6" rx="3" ry="3" cx="5" cy="5" stroke-width="2" stroke="#96e3ff" stroke-dasharray="" stroke-linecap="" fill="#faffff" style="cursor: default; opacity: 0;" visibility="hidden"/></g><g preserveAspectRatio="none" focusable="true" width="100" height="100" transform="translate(206.21,25.60) scale(1.00,1.00)" test-id="10" visibility="visible" style="opacity: 1;"><rect width="209" height="35" rx="11" ry="11" x="-3" y="-3" stroke-width="1" stroke="#b1ff99" stroke-dasharray="" stroke-linecap="" fill="#b1ff99" stroke-opacity="0" fill-opacity="0" style="cursor: move;"/><rect width="203" height="29" rx="9" ry="9" x="0" y="0" stroke-width="2" stroke="#6BC953" stroke-dasharray="" stroke-linecap="" fill="#6BC953" style="cursor: move; opacity: 1;" visibility="visible"/><text font-family="Verdana" font-size="12.1" font-style="normal" font-weight="normal" fill="#000000" style="cursor: move; opacity: 1;" visibility="visible" y="7.33" x="7.63"><tspan dy="1em" x="7.63">Utilisation de l’indice de boucle</tspan></text><g preserveAspectRatio="none" focusable="true" width="0" height="19"/><ellipse width="6" height="6" rx="3" ry="3" cx="206" cy="15" stroke-width="2" stroke="#6BC953" stroke-dasharray="" stroke-linecap="" fill="#cfffb7" style="cursor: default; opacity: 1;" visibility="visible"/></g><g preserveAspectRatio="none" focusable="true" width="100" height="100" transform="translate(428.63,-26.33) scale(1.00,1.00)" test-id="11" visibility="visible" style="opacity: 1;"><rect width="72" height="31" rx="9" ry="9" x="-3" y="-3" stroke-width="1" stroke="#dcffff" stroke-dasharray="" stroke-linecap="" fill="#dcffff" stroke-opacity="0" fill-opacity="0" style="cursor: move;"/><text font-family="Verdana" font-size="10.8" font-style="normal" font-weight="normal" fill="#000000" style="cursor: move; opacity: 1;" visibility="visible" y="6.33" x="6.59"><tspan dy="1em" x="6.59">a = a + 2</tspan></text><g preserveAspectRatio="none" focusable="true" width="0" height="16"/><ellipse width="6" height="6" rx="3" ry="3" cx="5" cy="5" stroke-width="2" stroke="#96e3ff" stroke-dasharray="" stroke-linecap="" fill="#faffff" style="cursor: default; opacity: 0;" visibility="hidden"/></g><g preserveAspectRatio="none" focusable="true" width="100" height="100" transform="translate(206.21,-50.93) scale(1.00,1.00)" test-id="12" visibility="visible" style="opacity: 1;"><rect width="198" height="35" rx="11" ry="11" x="-3" y="-3" stroke-width="1" stroke="#ffff97" stroke-dasharray="" stroke-linecap="" fill="#ffff97" stroke-opacity="0" fill-opacity="0" style="cursor: move;"/><rect width="192" height="29" rx="9" ry="9" x="0" y="0" stroke-width="2" stroke="#F8D651" stroke-dasharray="" stroke-linecap="" fill="#F8D651" style="cursor: move; opacity: 1;" visibility="visible"/><text font-family="Verdana" font-size="12.1" font-style="normal" font-weight="normal" fill="#000000" style="cursor: move; opacity: 1;" visibility="visible" y="7.33" x="7.63"><tspan dy="1em" x="7.63">Utilisation d’un accumulateur</tspan></text><g preserveAspectRatio="none" focusable="true" width="0" height="19"/><ellipse width="6" height="6" rx="3" ry="3" cx="195" cy="15" stroke-width="2" stroke="#F8D651" stroke-dasharray="" stroke-linecap="" fill="#ffffb5" style="cursor: default; opacity: 1;" visibility="visible"/></g><g preserveAspectRatio="none" focusable="true" width="100" height="100" transform="translate(439.35,45.26) scale(1.00,1.00)" test-id="13" visibility="visible" style="opacity: 1;"><rect width="187" height="32" rx="10" ry="10" x="-3" y="-3" stroke-width="1" stroke="#dcffff" stroke-dasharray="" stroke-linecap="" fill="#dcffff" stroke-opacity="0" fill-opacity="0" style="cursor: move;"/><text font-family="Verdana" font-size="10.8" font-style="normal" font-weight="normal" fill="#000000" style="cursor: move; opacity: 1;" visibility="visible" y="6.57" x="6.83"><tspan dy="1em" x="6.83">for i in range(debut, fin, pas) :</tspan></text><g preserveAspectRatio="none" focusable="true" width="0" height="17"/><ellipse width="6" height="6" rx="3" ry="3" cx="142" cy="15" stroke-width="2" stroke="#96e3ff" stroke-dasharray="" stroke-linecap="" fill="#faffff" style="cursor: default; opacity: 0;" visibility="hidden"/></g><g preserveAspectRatio="none" focusable="true" width="100" height="100" transform="translate(428.63,-71.52) scale(1.00,1.00)" test-id="14" visibility="visible" style="opacity: 1;"><rect width="153" height="41" rx="12" ry="12" x="-3" y="-3" stroke-width="1" stroke="#dcffff" stroke-dasharray="" stroke-linecap="" fill="#dcffff" stroke-opacity="0" fill-opacity="0" style="cursor: move;"/><text font-family="Verdana" font-size="10.8" font-style="normal" font-weight="normal" fill="#000000" style="cursor: move; opacity: 1;" visibility="visible" y="5.87" x="6.10"><tspan dy="1em" x="6.10">doit être initialisée avant</tspan><tspan dy="1em" x="6.10">la boucle</tspan></text><g preserveAspectRatio="none" focusable="true" width="0" height="15"/><ellipse width="6" height="6" rx="3" ry="3" cx="5" cy="5" stroke-width="2" stroke="#96e3ff" stroke-dasharray="" stroke-linecap="" fill="#faffff" style="cursor: default; opacity: 0;" visibility="hidden"/></g><g preserveAspectRatio="none" focusable="true" width="100" height="100" transform="translate(206.21,-110.85) scale(1.00,1.00)" test-id="15" visibility="visible" style="opacity: 1;"><rect width="232" height="35" rx="11" ry="11" x="-3" y="-3" stroke-width="1" stroke="#ff9776" stroke-dasharray="" stroke-linecap="" fill="#ff9776" stroke-opacity="0" fill-opacity="0" style="cursor: move;"/><rect width="226" height="29" rx="9" ry="9" x="0" y="0" stroke-width="2" stroke="#EB5130" stroke-dasharray="" stroke-linecap="" fill="#EB5130" style="cursor: move; opacity: 1;" visibility="visible"/><text font-family="Verdana" font-size="12.1" font-style="normal" font-weight="normal" fill="#000000" style="cursor: move; opacity: 1;" visibility="visible" y="7.33" x="7.63"><tspan dy="1em" x="7.63">Parcourir une chaîne de caractères</tspan></text><g preserveAspectRatio="none" focusable="true" width="0" height="19"/><ellipse width="6" height="6" rx="3" ry="3" cx="229" cy="15" stroke-width="2" stroke="#EB5130" stroke-dasharray="" stroke-linecap="" fill="#ffb594" style="cursor: default; opacity: 1;" visibility="visible"/></g><g preserveAspectRatio="none" focusable="true" width="100" height="100" transform="translate(462.14,-106.85) scale(1.00,1.00)" test-id="16" visibility="visible" style="opacity: 1;"><rect width="150" height="31" rx="9" ry="9" x="-3" y="-3" stroke-width="1" stroke="#dcffff" stroke-dasharray="" stroke-linecap="" fill="#dcffff" stroke-opacity="0" fill-opacity="0" style="cursor: move;"/><text font-family="Verdana" font-size="10.8" font-style="normal" font-weight="normal" fill="#000000" style="cursor: move; opacity: 1;" visibility="visible" y="6.33" x="6.59"><tspan dy="1em" x="6.59">for caractere in chaine: </tspan></text><g preserveAspectRatio="none" focusable="true" width="0" height="16"/><ellipse width="6" height="6" rx="3" ry="3" cx="5" cy="5" stroke-width="2" stroke="#96e3ff" stroke-dasharray="" stroke-linecap="" fill="#faffff" style="cursor: default; opacity: 0;" visibility="hidden"/></g><g preserveAspectRatio="none" focusable="true" width="100" height="100" transform="translate(206.21,-150.18) scale(1.00,1.00)" test-id="17" visibility="visible" style="opacity: 1;"><rect width="163" height="35" rx="11" ry="11" x="-3" y="-3" stroke-width="1" stroke="#e1c1ff" stroke-dasharray="" stroke-linecap="" fill="#e1c1ff" stroke-opacity="0" fill-opacity="0" style="cursor: move;"/><rect width="157" height="29" rx="9" ry="9" x="0" y="0" stroke-width="2" stroke="#9B7BEB" stroke-dasharray="" stroke-linecap="" fill="#9B7BEB" style="cursor: move; opacity: 1;" visibility="visible"/><text font-family="Verdana" font-size="12.1" font-style="normal" font-weight="normal" fill="#000000" style="cursor: move; opacity: 1;" visibility="visible" y="7.33" x="7.63"><tspan dy="1em" x="7.63">Les boucles imbriquées</tspan></text><g preserveAspectRatio="none" focusable="true" width="0" height="19"/><ellipse width="6" height="6" rx="3" ry="3" cx="5" cy="5" stroke-width="2" stroke="#9B7BEB" stroke-dasharray="" stroke-linecap="" fill="#ffdfff" style="cursor: default; opacity: 0;" visibility="hidden"/></g><rect width="50" height="6" rx="0" ry="0" x="-261" y="-3" stroke-width="1" stroke="#FF9933" stroke-dasharray="" stroke-linecap="" fill="#CC0033" stroke-opacity="0.4" fill-opacity="0.4" visibility="hidden" style="opacity: 0;"/></svg>