<?xml version="1.0" encoding="UTF-8" standalone="yes"?>
<svg xmlns:xlink="http://www.w3.org/1999/xlink" xmlns="http://www.w3.org/2000/svg" focusable="false" preserveAspectRatio="xMinYMin" width="2201" height="346" viewBox="-1144.5 -169.82 2201.33  345.62" style="background-color:white"><path d="M-349.9,79.9  C-349.9,82.2 ,-349.9,97.9  -377.9,97.9 " stroke-width="2" stroke="#345780" stroke-dasharray="" stroke-linecap="" stroke-opacity="1" fill="none" fill-opacity="0" visibility="visible" style="opacity: 1;"/><rect width="171" height="30" rx="0" ry="0" x="622" y="59" stroke-width="1" stroke="#FF9933" stroke-dasharray="" stroke-linecap="" fill="#CC0033" stroke-opacity="0.4" fill-opacity="0.4" visibility="hidden" style="opacity: 0;"/><path d="M865.0,18.9  C840.6,37.3  816.3,55.2  792.0,73.1   816.3,55.6  840.6,38.0  865.0,19.9  Z" stroke-width="1" stroke="#CC0033" stroke-dasharray="" stroke-linecap="" stroke-opacity="0.4" fill-opacity="0.4" visibility="hidden" style="opacity: 0;"/><path d="M-249.6,99.1  C-166.4,66.4  -83.2,33.2  0.0,0.0   -83.2,33.6  -166.4,67.1  -249.6,100.1  Z" stroke-width="1" stroke="#CC0033" stroke-dasharray="" stroke-linecap="" stroke-opacity="0.4" fill-opacity="0.4" visibility="hidden" style="opacity: 0;"/><path d="M-349.9,79.9  C-349.9,77.7 ,-349.9,62.3  -377.9,62.3 " stroke-width="2" stroke="#345780" stroke-dasharray="" stroke-linecap="" stroke-opacity="1" fill="none" fill-opacity="0" visibility="visible" style="opacity: 1;"/><path d="M-10.0,0.0  C-10.0,10.0 ,-10.0,79.9  -201.3,79.9 " stroke-width="2" stroke="#6AD6D7" stroke-dasharray="" stroke-linecap="" stroke-opacity="1" fill="none" fill-opacity="0" visibility="visible" style="opacity: 1;"/><path d="M725.8,126.8  C725.8,126.8 ,725.8,126.8  753.8,126.8 " stroke-width="2" stroke="#345780" stroke-dasharray="" stroke-linecap="" stroke-opacity="1" fill="none" fill-opacity="0" visibility="visible" style="opacity: 1;"/><path d="M597.6,55.5  C597.6,64.4 ,597.6,126.8  625.6,126.8 " stroke-width="2" stroke="#345780" stroke-dasharray="" stroke-linecap="" stroke-opacity="1" fill="none" fill-opacity="0" visibility="visible" style="opacity: 1;"/><path d="M795.0,73.1  C795.0,75.4 ,795.0,91.1  823.0,91.1 " stroke-width="2" stroke="#345780" stroke-dasharray="" stroke-linecap="" stroke-opacity="1" fill="none" fill-opacity="0" visibility="visible" style="opacity: 1;"/><path d="M795.0,73.1  C795.0,70.9 ,795.0,55.5  823.0,55.5 " stroke-width="2" stroke="#345780" stroke-dasharray="" stroke-linecap="" stroke-opacity="1" fill="none" fill-opacity="0" visibility="visible" style="opacity: 1;"/><path d="M597.6,55.5  C597.6,57.7 ,597.6,73.1  625.6,73.1 " stroke-width="2" stroke="#345780" stroke-dasharray="" stroke-linecap="" stroke-opacity="1" fill="none" fill-opacity="0" visibility="visible" style="opacity: 1;"/><path d="M597.6,55.5  C597.6,51.0 ,597.6,19.8  625.6,19.8 " stroke-width="2" stroke="#345780" stroke-dasharray="" stroke-linecap="" stroke-opacity="1" fill="none" fill-opacity="0" visibility="visible" style="opacity: 1;"/><path d="M597.6,55.5  C597.6,46.5 ,597.6,-15.9  625.6,-15.9 " stroke-width="2" stroke="#345780" stroke-dasharray="" stroke-linecap="" stroke-opacity="1" fill="none" fill-opacity="0" visibility="visible" style="opacity: 1;"/><path d="M10.0,0.0  C10.0,6.9 ,10.0,55.5  201.3,55.5 " stroke-width="2" stroke="#F8D651" stroke-dasharray="" stroke-linecap="" stroke-opacity="1" fill="none" fill-opacity="0" visibility="visible" style="opacity: 1;"/><path d="M-857.6,21.3  C-857.6,21.9 ,-857.6,26.1  -885.6,26.1 " stroke-width="2" stroke="#345780" stroke-dasharray="" stroke-linecap="" stroke-opacity="1" fill="none" fill-opacity="0" visibility="visible" style="opacity: 1;"/><path d="M-341.0,3.6  C-341.0,5.9 ,-341.0,21.3  -369.0,21.3 " stroke-width="2" stroke="#345780" stroke-dasharray="" stroke-linecap="" stroke-opacity="1" fill="none" fill-opacity="0" visibility="visible" style="opacity: 1;"/><path d="M-341.0,3.6  C-341.0,0.8 ,-341.0,-19.3  -369.0,-19.3 " stroke-width="2" stroke="#345780" stroke-dasharray="" stroke-linecap="" stroke-opacity="1" fill="none" fill-opacity="0" visibility="visible" style="opacity: 1;"/><path d="M-10.0,0.0  C-10.0,0.5 ,-10.0,3.6  -201.3,3.6 " stroke-width="2" stroke="#A5D945" stroke-dasharray="" stroke-linecap="" stroke-opacity="1" fill="none" fill-opacity="0" visibility="visible" style="opacity: 1;"/><path d="M10.0,0.0  C10.0,-6.7 ,10.0,-53.6  201.3,-53.6 " stroke-width="2" stroke="#EB5130" stroke-dasharray="" stroke-linecap="" stroke-opacity="1" fill="none" fill-opacity="0" visibility="visible" style="opacity: 1;"/><path d="M769.0,-90.9  C769.0,-90.9 ,769.0,-90.9  797.0,-90.9 " stroke-width="2" stroke="#345780" stroke-dasharray="" stroke-linecap="" stroke-opacity="1" fill="none" fill-opacity="0" visibility="visible" style="opacity: 1;"/><path d="M363.0,-109.0  C363.0,-106.8 ,363.0,-90.9  391.0,-90.9 " stroke-width="2" stroke="#345780" stroke-dasharray="" stroke-linecap="" stroke-opacity="1" fill="none" fill-opacity="0" visibility="visible" style="opacity: 1;"/><path d="M822.2,-126.7  C822.2,-126.6 ,822.2,-126.2  850.2,-126.2 " stroke-width="2" stroke="#345780" stroke-dasharray="" stroke-linecap="" stroke-opacity="1" fill="none" fill-opacity="0" visibility="visible" style="opacity: 1;"/><path d="M363.0,-109.0  C363.0,-111.2 ,363.0,-126.7  391.0,-126.7 " stroke-width="2" stroke="#345780" stroke-dasharray="" stroke-linecap="" stroke-opacity="1" fill="none" fill-opacity="0" visibility="visible" style="opacity: 1;"/><path d="M10.0,0.0  C10.0,-13.6 ,10.0,-109.0  201.3,-109.0 " stroke-width="2" stroke="#9B7BEB" stroke-dasharray="" stroke-linecap="" stroke-opacity="1" fill="none" fill-opacity="0" visibility="visible" style="opacity: 1;"/><path d="M-246.7,-96.0  C-246.7,-95.7 ,-246.7,-94.3  -274.7,-94.3 " stroke-width="2" stroke="#345780" stroke-dasharray="" stroke-linecap="" stroke-opacity="1" fill="none" fill-opacity="0" visibility="visible" style="opacity: 1;"/><path d="M-10.0,0.0  C-10.0,-12.0 ,-10.0,-96.0  -201.3,-96.0 " stroke-width="2" stroke="#E5628C" stroke-dasharray="" stroke-linecap="" stroke-opacity="1" fill="none" fill-opacity="0" visibility="visible" style="opacity: 1;"/><path d="M-10.0,0.0  C-10.0,-7.1 ,-10.0,-56.6  -201.3,-56.6 " stroke-width="2" stroke="#F3AE3D" stroke-dasharray="" stroke-linecap="" stroke-opacity="1" fill="none" fill-opacity="0" visibility="visible" style="opacity: 1;"/><g preserveAspectRatio="none" focusable="true" width="100" height="100" transform="translate(-169.27,-16.00) scale(1.00,1.00)" test-id="1" visibility="visible" style="opacity: 1;"><rect width="345" height="38" rx="11" ry="11" x="-3" y="-3" stroke-width="1" stroke="#ffffff" stroke-dasharray="" stroke-linecap="" fill="#ffffff" stroke-opacity="0" fill-opacity="0" style="cursor: default;"/><rect width="339" height="32" rx="10" ry="10" x="0" y="0" stroke-width="2" stroke="#FFFFFF" stroke-dasharray="" stroke-linecap="" fill="#FFFFFF" style="cursor: default; opacity: 1;" visibility="visible"/><text font-family="Verdana" font-size="13.4" font-style="normal" font-weight="bold" fill="#000000" style="cursor: default; opacity: 1;" visibility="visible" y="8.00" x="8.32"><tspan dy="1em" x="8.32">Constructions élémentaires - Les fonctions</tspan></text><g preserveAspectRatio="none" focusable="true" width="0" height="21"/></g><g preserveAspectRatio="none" focusable="true" width="100" height="100" transform="translate(-516.37,-71.29) scale(1.00,1.00)" test-id="2" visibility="visible" style="opacity: 1;"><rect width="323" height="35" rx="11" ry="11" x="-3" y="-3" stroke-width="1" stroke="#fff483" stroke-dasharray="" stroke-linecap="" fill="#fff483" stroke-opacity="0" fill-opacity="0" style="cursor: move;"/><rect width="317" height="29" rx="9" ry="9" x="0" y="0" stroke-width="2" stroke="#F3AE3D" stroke-dasharray="" stroke-linecap="" fill="#F3AE3D" style="cursor: move; opacity: 1;" visibility="visible"/><text font-family="Verdana" font-size="12.1" font-style="normal" font-weight="normal" fill="#000000" style="cursor: move; opacity: 1;" visibility="visible" y="7.33" x="7.62"><tspan dy="1em" x="7.62">Définition de la fonction puis appel de la fonction </tspan></text><g preserveAspectRatio="none" focusable="true" width="0" height="19"/><ellipse width="6" height="6" rx="3" ry="3" cx="-3" cy="15" stroke-width="2" stroke="#F3AE3D" stroke-dasharray="" stroke-linecap="" fill="#ffffa1" style="cursor: default; opacity: 0;" visibility="hidden"/></g><g preserveAspectRatio="none" focusable="true" width="100" height="100" transform="translate(-242.68,-110.61) scale(1.00,1.00)" test-id="5" visibility="visible" style="opacity: 1;"><rect width="49" height="35" rx="11" ry="11" x="-3" y="-3" stroke-width="1" stroke="#ffa8d2" stroke-dasharray="" stroke-linecap="" fill="#ffa8d2" stroke-opacity="0" fill-opacity="0" style="cursor: move;"/><rect width="43" height="29" rx="9" ry="9" x="0" y="0" stroke-width="2" stroke="#E5628C" stroke-dasharray="" stroke-linecap="" fill="#E5628C" style="cursor: move; opacity: 1;" visibility="visible"/><text font-family="Verdana" font-size="12.1" font-style="normal" font-weight="normal" fill="#000000" style="cursor: move; opacity: 1;" visibility="visible" y="7.33" x="7.62"><tspan dy="1em" x="7.62">Nom</tspan></text><g preserveAspectRatio="none" focusable="true" width="0" height="19"/><ellipse width="6" height="6" rx="3" ry="3" cx="-3" cy="15" stroke-width="2" stroke="#E5628C" stroke-dasharray="" stroke-linecap="" fill="#ffc6f0" style="cursor: default; opacity: 1;" visibility="visible"/></g><g preserveAspectRatio="none" focusable="true" width="100" height="100" transform="translate(-648.97,-107.31) scale(1.00,1.00)" test-id="6" visibility="visible" style="opacity: 1;"><rect width="382" height="32" rx="10" ry="10" x="-3" y="-3" stroke-width="1" stroke="#dcffff" stroke-dasharray="" stroke-linecap="" fill="#dcffff" stroke-opacity="0" fill-opacity="0" style="cursor: move;"/><text font-family="Verdana" font-size="10.8" font-style="normal" font-weight="normal" fill="#000000" style="cursor: move; opacity: 1;" visibility="visible" y="6.51" x="6.77"><tspan dy="1em" x="6.77">Chaque fonction a un nom qui permet de l'identifier et de l'appeler</tspan></text><g preserveAspectRatio="none" focusable="true" width="0" height="17"/><ellipse width="6" height="6" rx="3" ry="3" cx="5" cy="5" stroke-width="2" stroke="#96e3ff" stroke-dasharray="" stroke-linecap="" fill="#faffff" style="cursor: default; opacity: 0;" visibility="hidden"/></g><g preserveAspectRatio="none" focusable="true" width="100" height="100" transform="translate(199.27,-123.69) scale(1.00,1.00)" test-id="7" visibility="visible" style="opacity: 1;"><rect width="166" height="35" rx="11" ry="11" x="-3" y="-3" stroke-width="1" stroke="#e1c1ff" stroke-dasharray="" stroke-linecap="" fill="#e1c1ff" stroke-opacity="0" fill-opacity="0" style="cursor: move;"/><rect width="160" height="29" rx="9" ry="9" x="0" y="0" stroke-width="2" stroke="#9B7BEB" stroke-dasharray="" stroke-linecap="" fill="#9B7BEB" style="cursor: move; opacity: 1;" visibility="visible"/><text font-family="Verdana" font-size="12.1" font-style="normal" font-weight="normal" fill="#000000" style="cursor: move; opacity: 1;" visibility="visible" y="7.33" x="7.62"><tspan dy="1em" x="7.62">Paramètre vs Argument</tspan></text><g preserveAspectRatio="none" focusable="true" width="0" height="19"/><ellipse width="6" height="6" rx="3" ry="3" cx="163" cy="15" stroke-width="2" stroke="#9B7BEB" stroke-dasharray="" stroke-linecap="" fill="#ffdfff" style="cursor: default; opacity: 1;" visibility="visible"/></g><g preserveAspectRatio="none" focusable="true" width="100" height="100" transform="translate(389.03,-139.82) scale(1.00,1.00)" test-id="8" visibility="visible" style="opacity: 1;"><rect width="435" height="32" rx="10" ry="10" x="-3" y="-3" stroke-width="1" stroke="#dcffff" stroke-dasharray="" stroke-linecap="" fill="#dcffff" stroke-opacity="0" fill-opacity="0" style="cursor: move;"/><text font-family="Verdana" font-size="10.8" font-style="normal" font-weight="normal" fill="#000000" style="cursor: move; opacity: 1;" visibility="visible" y="6.56" x="6.83"><tspan dy="1em" x="6.83">Argument : valeur que l’on transmet à une fonction lorsque nous l’appelons.</tspan></text><g preserveAspectRatio="none" focusable="true" width="0" height="17"/><ellipse width="6" height="6" rx="3" ry="3" cx="432" cy="13" stroke-width="2" stroke="#96e3ff" stroke-dasharray="" stroke-linecap="" fill="#faffff" style="cursor: default; opacity: 1;" visibility="visible"/></g><g preserveAspectRatio="none" focusable="true" width="100" height="100" transform="translate(848.21,-138.89) scale(1.00,1.00)" test-id="9" visibility="visible" style="opacity: 1;"><rect width="89" height="31" rx="9" ry="9" x="-3" y="-3" stroke-width="1" stroke="#dcffff" stroke-dasharray="" stroke-linecap="" fill="#dcffff" stroke-opacity="0" fill-opacity="0" style="cursor: move;"/><text font-family="Verdana" font-size="10.8" font-style="normal" font-weight="normal" fill="#000000" style="cursor: move; opacity: 1;" visibility="visible" y="6.33" x="6.58"><tspan dy="1em" x="6.58">A l'exécution</tspan></text><g preserveAspectRatio="none" focusable="true" width="0" height="16"/><ellipse width="6" height="6" rx="3" ry="3" cx="5" cy="5" stroke-width="2" stroke="#96e3ff" stroke-dasharray="" stroke-linecap="" fill="#faffff" style="cursor: default; opacity: 0;" visibility="hidden"/></g><g preserveAspectRatio="none" focusable="true" width="100" height="100" transform="translate(389.03,-103.56) scale(1.00,1.00)" test-id="10" visibility="visible" style="opacity: 1;"><rect width="382" height="31" rx="9" ry="9" x="-3" y="-3" stroke-width="1" stroke="#dcffff" stroke-dasharray="" stroke-linecap="" fill="#dcffff" stroke-opacity="0" fill-opacity="0" style="cursor: move;"/><text font-family="Verdana" font-size="10.8" font-style="normal" font-weight="normal" fill="#000000" style="cursor: move; opacity: 1;" visibility="visible" y="6.33" x="6.58"><tspan dy="1em" x="6.58">Paramètre : une variable déclarée dans la définition de la fonction.</tspan></text><g preserveAspectRatio="none" focusable="true" width="0" height="16"/><ellipse width="6" height="6" rx="3" ry="3" cx="379" cy="13" stroke-width="2" stroke="#96e3ff" stroke-dasharray="" stroke-linecap="" fill="#faffff" style="cursor: default; opacity: 1;" visibility="visible"/></g><g preserveAspectRatio="none" focusable="true" width="100" height="100" transform="translate(795.00,-103.56) scale(1.00,1.00)" test-id="11" visibility="visible" style="opacity: 1;"><rect width="126" height="31" rx="9" ry="9" x="-3" y="-3" stroke-width="1" stroke="#dcffff" stroke-dasharray="" stroke-linecap="" fill="#dcffff" stroke-opacity="0" fill-opacity="0" style="cursor: move;"/><text font-family="Verdana" font-size="10.8" font-style="normal" font-weight="normal" fill="#000000" style="cursor: move; opacity: 1;" visibility="visible" y="6.33" x="6.58"><tspan dy="1em" x="6.58">Lors de la définition</tspan></text><g preserveAspectRatio="none" focusable="true" width="0" height="16"/><ellipse width="6" height="6" rx="3" ry="3" cx="5" cy="5" stroke-width="2" stroke="#96e3ff" stroke-dasharray="" stroke-linecap="" fill="#faffff" style="cursor: default; opacity: 0;" visibility="hidden"/></g><g preserveAspectRatio="none" focusable="true" width="100" height="100" transform="translate(199.27,-68.24) scale(1.00,1.00)" test-id="12" visibility="visible" style="opacity: 1;"><rect width="174" height="35" rx="11" ry="11" x="-3" y="-3" stroke-width="1" stroke="#ff9776" stroke-dasharray="" stroke-linecap="" fill="#ff9776" stroke-opacity="0" fill-opacity="0" style="cursor: move;"/><rect width="168" height="29" rx="9" ry="9" x="0" y="0" stroke-width="2" stroke="#EB5130" stroke-dasharray="" stroke-linecap="" fill="#EB5130" style="cursor: move; opacity: 1;" visibility="visible"/><text font-family="Verdana" font-size="12.1" font-style="normal" font-weight="normal" fill="#000000" style="cursor: move; opacity: 1;" visibility="visible" y="7.33" x="7.62"><tspan dy="1em" x="7.62">Avec ou sans paramètres</tspan></text><g preserveAspectRatio="none" focusable="true" width="0" height="19"/><ellipse width="6" height="6" rx="3" ry="3" cx="5" cy="5" stroke-width="2" stroke="#EB5130" stroke-dasharray="" stroke-linecap="" fill="#ffb594" style="cursor: default; opacity: 0;" visibility="hidden"/></g><g preserveAspectRatio="none" focusable="true" width="100" height="100" transform="translate(-336.99,-11.01) scale(1.00,1.00)" test-id="13" visibility="visible" style="opacity: 1;"><rect width="144" height="35" rx="11" ry="11" x="-3" y="-3" stroke-width="1" stroke="#ebff8b" stroke-dasharray="" stroke-linecap="" fill="#ebff8b" stroke-opacity="0" fill-opacity="0" style="cursor: move;"/><rect width="138" height="29" rx="9" ry="9" x="0" y="0" stroke-width="2" stroke="#A5D945" stroke-dasharray="" stroke-linecap="" fill="#A5D945" style="cursor: move; opacity: 1;" visibility="visible"/><text font-family="Verdana" font-size="12.1" font-style="normal" font-weight="normal" fill="#000000" style="cursor: move; opacity: 1;" visibility="visible" y="7.33" x="7.62"><tspan dy="1em" x="7.62">Portée des variables</tspan></text><g preserveAspectRatio="none" focusable="true" width="0" height="19"/><ellipse width="6" height="6" rx="3" ry="3" cx="-3" cy="15" stroke-width="2" stroke="#A5D945" stroke-dasharray="" stroke-linecap="" fill="#ffffa9" style="cursor: default; opacity: 1;" visibility="visible"/></g><g preserveAspectRatio="none" focusable="true" width="100" height="100" transform="translate(-539.88,-31.96) scale(1.00,1.00)" test-id="14" visibility="visible" style="opacity: 1;"><rect width="179" height="31" rx="9" ry="9" x="-3" y="-3" stroke-width="1" stroke="#dcffff" stroke-dasharray="" stroke-linecap="" fill="#dcffff" stroke-opacity="0" fill-opacity="0" style="cursor: move;"/><text font-family="Verdana" font-size="10.8" font-style="normal" font-weight="normal" fill="#000000" style="cursor: move; opacity: 1;" visibility="visible" y="6.33" x="6.58"><tspan dy="1em" x="6.58">Variable locale à une fonction</tspan></text><g preserveAspectRatio="none" focusable="true" width="0" height="16"/><ellipse width="6" height="6" rx="3" ry="3" cx="5" cy="5" stroke-width="2" stroke="#96e3ff" stroke-dasharray="" stroke-linecap="" fill="#faffff" style="cursor: default; opacity: 0;" visibility="hidden"/></g><g preserveAspectRatio="none" focusable="true" width="100" height="100" transform="translate(-853.61,3.36) scale(1.00,1.00)" test-id="15" visibility="visible" style="opacity: 1;"><rect width="493" height="42" rx="13" ry="13" x="-3" y="-3" stroke-width="1" stroke="#dcffff" stroke-dasharray="" stroke-linecap="" fill="#dcffff" stroke-opacity="0" fill-opacity="0" style="cursor: move;"/><text font-family="Verdana" font-size="10.8" font-style="normal" font-weight="normal" fill="#000000" style="cursor: move; opacity: 1;" visibility="visible" y="5.98" x="6.22"><tspan dy="1em" x="6.22">Variables globales: accessibles à travers</tspan><tspan dy="1em" x="6.22">l’ensemble du programme et accessible en lecture seulement à l’intérieur des fonctions</tspan></text><g preserveAspectRatio="none" focusable="true" width="0" height="16"/><ellipse width="6" height="6" rx="3" ry="3" cx="-3" cy="18" stroke-width="2" stroke="#96e3ff" stroke-dasharray="" stroke-linecap="" fill="#faffff" style="cursor: default; opacity: 1;" visibility="visible"/></g><g preserveAspectRatio="none" focusable="true" width="100" height="100" transform="translate(-1114.50,13.00) scale(1.00,1.00)" test-id="16" visibility="visible" style="opacity: 1;"><rect width="237" height="32" rx="10" ry="10" x="-3" y="-3" stroke-width="1" stroke="#dcffff" stroke-dasharray="" stroke-linecap="" fill="#dcffff" stroke-opacity="0" fill-opacity="0" style="cursor: move;"/><text font-family="Verdana" font-size="10.8" font-style="normal" font-weight="normal" fill="#000000" style="cursor: move; opacity: 1;" visibility="visible" y="6.56" x="6.83"><tspan dy="1em" x="6.83">sinon utiliser : global nom_de_variables</tspan></text><g preserveAspectRatio="none" focusable="true" width="0" height="17"/><ellipse width="6" height="6" rx="3" ry="3" cx="5" cy="5" stroke-width="2" stroke="#96e3ff" stroke-dasharray="" stroke-linecap="" fill="#faffff" style="cursor: default; opacity: 0;" visibility="hidden"/></g><g preserveAspectRatio="none" focusable="true" width="100" height="100" transform="translate(199.27,40.79) scale(1.00,1.00)" test-id="17" visibility="visible" style="opacity: 1;"><rect width="400" height="35" rx="11" ry="11" x="-3" y="-3" stroke-width="1" stroke="#ffff97" stroke-dasharray="" stroke-linecap="" fill="#ffff97" stroke-opacity="0" fill-opacity="0" style="cursor: move;"/><rect width="394" height="29" rx="9" ry="9" x="0" y="0" stroke-width="2" stroke="#F8D651" stroke-dasharray="" stroke-linecap="" fill="#F8D651" style="cursor: move; opacity: 1;" visibility="visible"/><text font-family="Verdana" font-size="12.1" font-style="normal" font-weight="normal" fill="#000000" style="cursor: move; opacity: 1;" visibility="visible" y="7.33" x="7.62"><tspan dy="1em" x="7.62">Le mot clé return :  permet d'indiquer le résultat de la fonction</tspan></text><g preserveAspectRatio="none" focusable="true" width="0" height="19"/><ellipse width="6" height="6" rx="3" ry="3" cx="397" cy="15" stroke-width="2" stroke="#F8D651" stroke-dasharray="" stroke-linecap="" fill="#ffffb5" style="cursor: default; opacity: 1;" visibility="visible"/></g><g preserveAspectRatio="none" focusable="true" width="100" height="100" transform="translate(623.59,-28.91) scale(1.00,1.00)" test-id="18" visibility="visible" style="opacity: 1;"><rect width="250" height="32" rx="10" ry="10" x="-3" y="-3" stroke-width="1" stroke="#dcffff" stroke-dasharray="" stroke-linecap="" fill="#dcffff" stroke-opacity="0" fill-opacity="0" style="cursor: move;"/><text font-family="Verdana" font-size="10.8" font-style="normal" font-weight="normal" fill="#000000" style="cursor: move; opacity: 1;" visibility="visible" y="6.51" x="6.77"><tspan dy="1em" x="6.77">la valeur de cette expression est renvoyée</tspan></text><g preserveAspectRatio="none" focusable="true" width="0" height="17"/><ellipse width="6" height="6" rx="3" ry="3" cx="5" cy="5" stroke-width="2" stroke="#96e3ff" stroke-dasharray="" stroke-linecap="" fill="#faffff" style="cursor: default; opacity: 0;" visibility="hidden"/></g><g preserveAspectRatio="none" focusable="true" width="100" height="100" transform="translate(623.59,7.12) scale(1.00,1.00)" test-id="19" visibility="visible" style="opacity: 1;"><rect width="221" height="31" rx="9" ry="9" x="-3" y="-3" stroke-width="1" stroke="#dcffff" stroke-dasharray="" stroke-linecap="" fill="#dcffff" stroke-opacity="0" fill-opacity="0" style="cursor: move;"/><text font-family="Verdana" font-size="10.8" font-style="normal" font-weight="normal" fill="#000000" style="cursor: move; opacity: 1;" visibility="visible" y="6.33" x="6.58"><tspan dy="1em" x="6.58">Sans return : la fonction renvoi None</tspan></text><g preserveAspectRatio="none" focusable="true" width="0" height="16"/><ellipse width="6" height="6" rx="3" ry="3" cx="5" cy="5" stroke-width="2" stroke="#96e3ff" stroke-dasharray="" stroke-linecap="" fill="#faffff" style="cursor: default; opacity: 0;" visibility="hidden"/></g><g preserveAspectRatio="none" focusable="true" width="100" height="100" transform="translate(623.59,60.11) scale(1.00,1.00)" test-id="20" visibility="visible" style="opacity: 1;"><rect width="173" height="32" rx="10" ry="10" x="-3" y="-3" stroke-width="1" stroke="#dcffff" stroke-dasharray="" stroke-linecap="" fill="#dcffff" stroke-opacity="0" fill-opacity="0" style="cursor: move;"/><text font-family="Verdana" font-size="10.8" font-style="normal" font-weight="normal" fill="#000000" style="cursor: move; opacity: 1;" visibility="visible" y="6.51" x="6.77"><tspan dy="1em" x="6.77">Renvoyer plusieurs résultats</tspan></text><g preserveAspectRatio="none" focusable="true" width="0" height="17"/><ellipse width="6" height="6" rx="3" ry="3" cx="170" cy="13" stroke-width="2" stroke="#96e3ff" stroke-dasharray="" stroke-linecap="" fill="#faffff" style="cursor: default; opacity: 1;" visibility="visible"/></g><g preserveAspectRatio="none" focusable="true" width="100" height="100" transform="translate(820.98,42.44) scale(1.00,1.00)" test-id="21" visibility="visible" style="opacity: 1;"><rect width="140" height="32" rx="10" ry="10" x="-3" y="-3" stroke-width="1" stroke="#dcffff" stroke-dasharray="" stroke-linecap="" fill="#dcffff" stroke-opacity="0" fill-opacity="0" style="cursor: move;"/><text font-family="Verdana" font-size="10.8" font-style="normal" font-weight="normal" fill="#000000" style="cursor: move; opacity: 1;" visibility="visible" y="6.51" x="6.77"><tspan dy="1em" x="6.77">en utilisant un n-uplet</tspan></text><g preserveAspectRatio="none" focusable="true" width="0" height="17"/><ellipse width="6" height="6" rx="3" ry="3" cx="5" cy="5" stroke-width="2" stroke="#96e3ff" stroke-dasharray="" stroke-linecap="" fill="#faffff" style="cursor: default; opacity: 0;" visibility="hidden"/></g><g preserveAspectRatio="none" focusable="true" width="100" height="100" transform="translate(820.98,78.47) scale(1.00,1.00)" test-id="22" visibility="visible" style="opacity: 1;"><rect width="141" height="31" rx="9" ry="9" x="-3" y="-3" stroke-width="1" stroke="#dcffff" stroke-dasharray="" stroke-linecap="" fill="#dcffff" stroke-opacity="0" fill-opacity="0" style="cursor: move;"/><text font-family="Verdana" font-size="10.8" font-style="normal" font-weight="normal" fill="#000000" style="cursor: move; opacity: 1;" visibility="visible" y="6.33" x="6.58"><tspan dy="1em" x="6.58">en utilisant un tableau</tspan></text><g preserveAspectRatio="none" focusable="true" width="0" height="16"/><ellipse width="6" height="6" rx="3" ry="3" cx="5" cy="5" stroke-width="2" stroke="#96e3ff" stroke-dasharray="" stroke-linecap="" fill="#faffff" style="cursor: default; opacity: 0;" visibility="hidden"/></g><g preserveAspectRatio="none" focusable="true" width="100" height="100" transform="translate(623.59,113.80) scale(1.00,1.00)" test-id="23" visibility="visible" style="opacity: 1;"><rect width="104" height="32" rx="10" ry="10" x="-3" y="-3" stroke-width="1" stroke="#dcffff" stroke-dasharray="" stroke-linecap="" fill="#dcffff" stroke-opacity="0" fill-opacity="0" style="cursor: move;"/><text font-family="Verdana" font-size="10.8" font-style="normal" font-weight="normal" fill="#000000" style="cursor: move; opacity: 1;" visibility="visible" y="6.51" x="6.77"><tspan dy="1em" x="6.77">Sortie anticipée</tspan></text><g preserveAspectRatio="none" focusable="true" width="0" height="17"/><ellipse width="6" height="6" rx="3" ry="3" cx="101" cy="13" stroke-width="2" stroke="#96e3ff" stroke-dasharray="" stroke-linecap="" fill="#faffff" style="cursor: default; opacity: 1;" visibility="visible"/></g><g preserveAspectRatio="none" focusable="true" width="100" height="100" transform="translate(751.83,113.80) scale(1.00,1.00)" test-id="24" visibility="visible" style="opacity: 1;"><rect width="275" height="32" rx="10" ry="10" x="-3" y="-3" stroke-width="1" stroke="#dcffff" stroke-dasharray="" stroke-linecap="" fill="#dcffff" stroke-opacity="0" fill-opacity="0" style="cursor: move;"/><text font-family="Verdana" font-size="10.8" font-style="normal" font-weight="normal" fill="#000000" style="cursor: move; opacity: 1;" visibility="visible" y="6.51" x="6.77"><tspan dy="1em" x="6.77">Renvoyer le résultat + interrompre l'exécution </tspan></text><g preserveAspectRatio="none" focusable="true" width="0" height="17"/><ellipse width="6" height="6" rx="3" ry="3" cx="5" cy="5" stroke-width="2" stroke="#96e3ff" stroke-dasharray="" stroke-linecap="" fill="#faffff" style="cursor: default; opacity: 0;" visibility="hidden"/></g><g preserveAspectRatio="none" focusable="true" width="100" height="100" transform="translate(-345.95,65.27) scale(1.00,1.00)" test-id="25" visibility="visible" style="opacity: 1;"><rect width="153" height="35" rx="11" ry="11" x="-3" y="-3" stroke-width="1" stroke="#b0ffff" stroke-dasharray="" stroke-linecap="" fill="#b0ffff" stroke-opacity="0" fill-opacity="0" style="cursor: move;"/><rect width="147" height="29" rx="9" ry="9" x="0" y="0" stroke-width="2" stroke="#6AD6D7" stroke-dasharray="" stroke-linecap="" fill="#6AD6D7" style="cursor: move; opacity: 1;" visibility="visible"/><text font-family="Verdana" font-size="12.1" font-style="normal" font-weight="normal" fill="#000000" style="cursor: move; opacity: 1;" visibility="visible" y="7.33" x="7.62"><tspan dy="1em" x="7.62">Procédure vs fonction</tspan></text><g preserveAspectRatio="none" focusable="true" width="0" height="19"/><ellipse width="6" height="6" rx="3" ry="3" cx="-3" cy="15" stroke-width="2" stroke="#6AD6D7" stroke-dasharray="" stroke-linecap="" fill="#ceffff" style="cursor: default; opacity: 1;" visibility="visible"/></g><g preserveAspectRatio="none" focusable="true" width="100" height="100" transform="translate(-773.65,49.26) scale(1.00,1.00)" test-id="26" visibility="visible" style="opacity: 1;"><rect width="404" height="32" rx="10" ry="10" x="-3" y="-3" stroke-width="1" stroke="#dcffff" stroke-dasharray="" stroke-linecap="" fill="#dcffff" stroke-opacity="0" fill-opacity="0" style="cursor: move;"/><text font-family="Verdana" font-size="10.8" font-style="normal" font-weight="normal" fill="#000000" style="cursor: move; opacity: 1;" visibility="visible" y="6.51" x="6.77"><tspan dy="1em" x="6.77">Une fonction avec résultat : calculer et mettre à disposition une valeur</tspan></text><g preserveAspectRatio="none" focusable="true" width="0" height="17"/><ellipse width="6" height="6" rx="3" ry="3" cx="5" cy="5" stroke-width="2" stroke="#96e3ff" stroke-dasharray="" stroke-linecap="" fill="#faffff" style="cursor: default; opacity: 0;" visibility="hidden"/></g><g preserveAspectRatio="none" focusable="true" width="100" height="100" transform="translate(-568.74,84.94) scale(1.00,1.00)" test-id="29" visibility="visible" style="opacity: 1;"><rect width="199" height="32" rx="10" ry="10" x="-3" y="-3" stroke-width="1" stroke="#dcffff" stroke-dasharray="" stroke-linecap="" fill="#dcffff" stroke-opacity="0" fill-opacity="0" style="cursor: move;"/><text font-family="Verdana" font-size="10.8" font-style="normal" font-weight="normal" fill="#000000" style="cursor: move; opacity: 1;" visibility="visible" y="6.51" x="6.77"><tspan dy="1em" x="6.77">Une procédure réalise une action</tspan></text><g preserveAspectRatio="none" focusable="true" width="0" height="17"/><ellipse width="6" height="6" rx="3" ry="3" cx="5" cy="5" stroke-width="2" stroke="#96e3ff" stroke-dasharray="" stroke-linecap="" fill="#faffff" style="cursor: default; opacity: 0;" visibility="hidden"/></g><rect width="50" height="6" rx="0" ry="0" x="863" y="16" stroke-width="1" stroke="#FF9933" stroke-dasharray="" stroke-linecap="" fill="#CC0033" stroke-opacity="0.4" fill-opacity="0.4" visibility="hidden" style="opacity: 0;"/></svg>