<?xml version="1.0" encoding="UTF-8" standalone="yes"?>
<svg xmlns:xlink="http://www.w3.org/1999/xlink" xmlns="http://www.w3.org/2000/svg" focusable="false" preserveAspectRatio="xMinYMin" width="1270" height="376" viewBox="-563.74 -184.93 1269.75  375.53" style="background-color:white"><path d="M-336.5,124.1  C-336.5,126.4 ,-336.5,142.3  -364.5,142.3 " stroke-width="2" stroke="#345780" stroke-dasharray="" stroke-linecap="" stroke-opacity="1" fill="none" fill-opacity="0" visibility="visible" style="opacity: 1;"/><path d="M-336.5,124.1  C-336.5,121.9 ,-336.5,106.5  -364.5,106.5 " stroke-width="2" stroke="#345780" stroke-dasharray="" stroke-linecap="" stroke-opacity="1" fill="none" fill-opacity="0" visibility="visible" style="opacity: 1;"/><path d="M-10.0,0.0  C-10.0,15.5 ,-10.0,124.1  -193.5,124.1 " stroke-width="2" stroke="#F3AE3D" stroke-dasharray="" stroke-linecap="" stroke-opacity="1" fill="none" fill-opacity="0" visibility="visible" style="opacity: 1;"/><path d="M585.2,125.0  C585.2,125.0 ,585.2,125.0  613.5,125.0 " stroke-width="2" stroke="#345780" stroke-dasharray="" stroke-linecap="" stroke-opacity="1" fill="none" fill-opacity="0" visibility="visible" style="opacity: 1;"/><path d="M471.3,125.0  C471.3,125.0 ,471.3,125.0  498.8,125.0 " stroke-width="2" stroke="#345780" stroke-dasharray="" stroke-linecap="" stroke-opacity="1" fill="none" fill-opacity="0" visibility="visible" style="opacity: 1;"/><path d="M392.3,107.0  C392.3,109.3 ,392.3,125.0  420.7,125.0 " stroke-width="2" stroke="#345780" stroke-dasharray="" stroke-linecap="" stroke-opacity="1" fill="none" fill-opacity="0" visibility="visible" style="opacity: 1;"/><path d="M595.0,88.5  C595.0,88.5 ,595.0,88.7  623.0,88.7 " stroke-width="2" stroke="#345780" stroke-dasharray="" stroke-linecap="" stroke-opacity="1" fill="none" fill-opacity="0" visibility="visible" style="opacity: 1;"/><path d="M467.7,89.0  C467.7,88.9 ,467.7,88.5  495.7,88.5 " stroke-width="2" stroke="#345780" stroke-dasharray="" stroke-linecap="" stroke-opacity="1" fill="none" fill-opacity="0" visibility="visible" style="opacity: 1;"/><path d="M392.3,107.0  C392.3,104.8 ,392.3,89.0  420.3,89.0 " stroke-width="2" stroke="#345780" stroke-dasharray="" stroke-linecap="" stroke-opacity="1" fill="none" fill-opacity="0" visibility="visible" style="opacity: 1;"/><path d="M10.0,0.0  C10.0,13.4 ,10.0,107.0  193.7,107.0 " stroke-width="2" stroke="#EB5130" stroke-dasharray="" stroke-linecap="" stroke-opacity="1" fill="none" fill-opacity="0" visibility="visible" style="opacity: 1;"/><path d="M-340.9,-35.8  C-340.9,-22.5 ,-340.9,70.7  -368.9,70.7 " stroke-width="2" stroke="#345780" stroke-dasharray="" stroke-linecap="" stroke-opacity="1" fill="none" fill-opacity="0" visibility="visible" style="opacity: 1;"/><path d="M-340.9,-35.8  C-340.9,-26.9 ,-340.9,35.3  -368.9,35.3 " stroke-width="2" stroke="#345780" stroke-dasharray="" stroke-linecap="" stroke-opacity="1" fill="none" fill-opacity="0" visibility="visible" style="opacity: 1;"/><path d="M-340.9,-35.8  C-340.9,-31.3 ,-340.9,0.0  -368.9,0.0 " stroke-width="2" stroke="#345780" stroke-dasharray="" stroke-linecap="" stroke-opacity="1" fill="none" fill-opacity="0" visibility="visible" style="opacity: 1;"/><path d="M-483.0,-70.7  C-483.0,-66.3 ,-483.0,-35.3  -511.0,-35.3 " stroke-width="2" stroke="#345780" stroke-dasharray="" stroke-linecap="" stroke-opacity="1" fill="none" fill-opacity="0" visibility="visible" style="opacity: 1;"/><path d="M-483.0,-70.7  C-483.0,-70.7 ,-483.0,-70.7  -511.0,-70.7 " stroke-width="2" stroke="#345780" stroke-dasharray="" stroke-linecap="" stroke-opacity="1" fill="none" fill-opacity="0" visibility="visible" style="opacity: 1;"/><path d="M-483.0,-70.7  C-483.0,-75.1 ,-483.0,-106.0  -511.0,-106.0 " stroke-width="2" stroke="#345780" stroke-dasharray="" stroke-linecap="" stroke-opacity="1" fill="none" fill-opacity="0" visibility="visible" style="opacity: 1;"/><path d="M-340.9,-35.8  C-340.9,-40.2 ,-340.9,-70.7  -368.9,-70.7 " stroke-width="2" stroke="#345780" stroke-dasharray="" stroke-linecap="" stroke-opacity="1" fill="none" fill-opacity="0" visibility="visible" style="opacity: 1;"/><path d="M-340.9,-35.8  C-340.9,-49.1 ,-340.9,-141.8  -368.9,-141.8 " stroke-width="2" stroke="#345780" stroke-dasharray="" stroke-linecap="" stroke-opacity="1" fill="none" fill-opacity="0" visibility="visible" style="opacity: 1;"/><path d="M-10.0,0.0  C-10.0,-4.5 ,-10.0,-35.8  -193.5,-35.8 " stroke-width="2" stroke="#E5628C" stroke-dasharray="" stroke-linecap="" stroke-opacity="1" fill="none" fill-opacity="0" visibility="visible" style="opacity: 1;"/><path d="M266.2,-36.0  C266.2,-24.9 ,266.2,53.0  294.4,53.0 " stroke-width="2" stroke="#345780" stroke-dasharray="" stroke-linecap="" stroke-opacity="1" fill="none" fill-opacity="0" visibility="visible" style="opacity: 1;"/><path d="M409.8,-18.0  C409.8,-13.6 ,409.8,17.0  438.0,17.0 " stroke-width="2" stroke="#345780" stroke-dasharray="" stroke-linecap="" stroke-opacity="1" fill="none" fill-opacity="0" visibility="visible" style="opacity: 1;"/><path d="M409.8,-18.0  C409.8,-18.0 ,409.8,-18.0  437.4,-18.0 " stroke-width="2" stroke="#345780" stroke-dasharray="" stroke-linecap="" stroke-opacity="1" fill="none" fill-opacity="0" visibility="visible" style="opacity: 1;"/><path d="M409.8,-18.0  C409.8,-22.5 ,409.8,-54.0  437.4,-54.0 " stroke-width="2" stroke="#345780" stroke-dasharray="" stroke-linecap="" stroke-opacity="1" fill="none" fill-opacity="0" visibility="visible" style="opacity: 1;"/><path d="M266.2,-36.0  C266.2,-33.8 ,266.2,-18.0  294.2,-18.0 " stroke-width="2" stroke="#345780" stroke-dasharray="" stroke-linecap="" stroke-opacity="1" fill="none" fill-opacity="0" visibility="visible" style="opacity: 1;"/><path d="M489.0,-105.0  C489.0,-102.8 ,489.0,-87.0  517.4,-87.0 " stroke-width="2" stroke="#345780" stroke-dasharray="" stroke-linecap="" stroke-opacity="1" fill="none" fill-opacity="0" visibility="visible" style="opacity: 1;"/><path d="M489.0,-105.0  C489.0,-107.2 ,489.0,-122.7  517.0,-122.7 " stroke-width="2" stroke="#345780" stroke-dasharray="" stroke-linecap="" stroke-opacity="1" fill="none" fill-opacity="0" visibility="visible" style="opacity: 1;"/><path d="M437.4,-105.0  C437.4,-105.0 ,437.4,-105.0  465.0,-105.0 " stroke-width="2" stroke="#345780" stroke-dasharray="" stroke-linecap="" stroke-opacity="1" fill="none" fill-opacity="0" visibility="visible" style="opacity: 1;"/><path d="M266.2,-36.0  C266.2,-44.6 ,266.2,-105.0  294.6,-105.0 " stroke-width="2" stroke="#345780" stroke-dasharray="" stroke-linecap="" stroke-opacity="1" fill="none" fill-opacity="0" visibility="visible" style="opacity: 1;"/><path d="M10.0,0.0  C10.0,-4.5 ,10.0,-36.0  193.8,-36.0 " stroke-width="2" stroke="#9B7BEB" stroke-dasharray="" stroke-linecap="" stroke-opacity="1" fill="none" fill-opacity="0" visibility="visible" style="opacity: 1;"/><rect width="50" height="6" rx="0" ry="0" x="5" y="5" stroke-width="1" stroke="#FF9933" stroke-dasharray="" stroke-linecap="" fill="#CC0033" stroke-opacity="0.4" fill-opacity="0.4" visibility="hidden" style="opacity: 0;"/><path d="M0.0,-0.5  C0.0,0.0  0.0,0.0  0.0,0.0   0.0,0.4  0.0,0.7  0.0,0.5  Z" stroke-width="1" stroke="#CC0033" stroke-dasharray="" stroke-linecap="" stroke-opacity="0.4" fill-opacity="0.4" visibility="hidden" style="opacity: 0;"/><path d="M0.0,-0.5  C0.0,0.0  0.0,0.0  0.0,0.0   0.0,0.4  0.0,0.7  0.0,0.5  Z" stroke-width="1" stroke="#CC0033" stroke-dasharray="" stroke-linecap="" stroke-opacity="0.4" fill-opacity="0.4" visibility="hidden" style="opacity: 0;"/><rect width="50" height="6" rx="0" ry="0" x="5" y="5" stroke-width="1" stroke="#FF9933" stroke-dasharray="" stroke-linecap="" fill="#CC0033" stroke-opacity="0.4" fill-opacity="0.4" visibility="hidden" style="opacity: 0;"/><g preserveAspectRatio="none" focusable="true" width="100" height="100" transform="translate(-161.49,-16.22) scale(1.00,1.00)" test-id="1" visibility="visible" style="opacity: 1;"><rect width="329" height="38" rx="12" ry="12" x="-3" y="-3" stroke-width="1" stroke="#ffffff" stroke-dasharray="" stroke-linecap="" fill="#ffffff" stroke-opacity="1" fill-opacity="1" style="cursor: default;"/><rect width="323" height="32" rx="10" ry="10" x="0" y="0" stroke-width="2" stroke="#FFFFFF" stroke-dasharray="" stroke-linecap="" fill="#FFFFFF" style="cursor: default; opacity: 1;" visibility="visible"/><text font-family="Verdana" font-size="13.4" font-style="normal" font-weight="bold" fill="#000000" style="cursor: default; opacity: 1;" visibility="visible" y="8.11" x="8.43"><tspan dy="1em" x="8.43">Python : Un language de programmation</tspan></text><g preserveAspectRatio="none" focusable="true" width="0" height="21"/></g><g preserveAspectRatio="none" focusable="true" width="100" height="100" transform="translate(191.85,-50.67) scale(1.00,1.00)" test-id="2" visibility="visible" style="opacity: 1;"><rect width="76" height="35" rx="11" ry="11" x="-3" y="-3" stroke-width="1" stroke="#e1c1ff" stroke-dasharray="" stroke-linecap="" fill="#e1c1ff" stroke-opacity="0" fill-opacity="0"/><rect width="70" height="29" rx="9" ry="9" x="0" y="0" stroke-width="2" stroke="#9B7BEB" stroke-dasharray="" stroke-linecap="" fill="#9B7BEB" style="cursor: move; opacity: 1;" visibility="visible"/><text font-family="Verdana" font-size="12.1" font-style="normal" font-weight="normal" fill="#000000" style="cursor: move; opacity: 1;" visibility="visible" y="7.33" x="7.63"><tspan dy="1em" x="7.63">Variables</tspan></text><ellipse width="6" height="6" rx="3" ry="3" cx="73" cy="15" stroke-width="2" stroke="#9B7BEB" stroke-dasharray="" stroke-linecap="" fill="#ffdfff" style="cursor: default; opacity: 1;" visibility="visible"/><g preserveAspectRatio="none" focusable="true" width="0" height="19"/></g><g preserveAspectRatio="none" focusable="true" width="100" height="100" transform="translate(292.59,-117.67) scale(1.00,1.00)" test-id="27" visibility="visible" style="opacity: 1;"><rect width="147" height="31" rx="9" ry="9" x="-3" y="-3" stroke-width="1" stroke="#dcffff" stroke-dasharray="" stroke-linecap="" fill="#dcffff" stroke-opacity="0" fill-opacity="0"/><text font-family="Verdana" font-size="10.8" font-style="normal" font-weight="normal" fill="#000000" style="cursor: move; opacity: 1;" visibility="visible" y="6.33" x="6.59"><tspan dy="1em" x="6.59">Affectation de variables</tspan></text><ellipse width="6" height="6" rx="3" ry="3" cx="144" cy="13" stroke-width="2" stroke="#96e3ff" stroke-dasharray="" stroke-linecap="" fill="#faffff" style="cursor: default; opacity: 1;" visibility="visible"/><g preserveAspectRatio="none" focusable="true" width="0" height="16"/></g><g preserveAspectRatio="none" focusable="true" width="100" height="100" transform="translate(463.00,-117.67) scale(1.00,1.00)" test-id="28" visibility="visible" style="opacity: 1;"><rect width="28" height="31" rx="8" ry="8" x="-3" y="-3" stroke-width="1" stroke="#dcffff" stroke-dasharray="" stroke-linecap="" fill="#dcffff" stroke-opacity="0" fill-opacity="0"/><text font-family="Verdana" font-size="10.8" font-style="normal" font-weight="normal" fill="#000000" style="cursor: move; opacity: 1;" visibility="visible" y="6.33" x="6.59"><tspan dy="1em" x="6.59">=</tspan></text><ellipse width="6" height="6" rx="3" ry="3" cx="25" cy="13" stroke-width="2" stroke="#96e3ff" stroke-dasharray="" stroke-linecap="" fill="#faffff" style="cursor: default; opacity: 1;" visibility="visible"/><g preserveAspectRatio="none" focusable="true" width="0" height="16"/></g><g preserveAspectRatio="none" focusable="true" width="100" height="100" transform="translate(515.00,-135.80) scale(1.00,1.00)" test-id="30" visibility="visible" style="opacity: 1;"><rect width="135" height="32" rx="10" ry="10" x="-3" y="-3" stroke-width="1" stroke="#dcffff" stroke-dasharray="" stroke-linecap="" fill="#dcffff" stroke-opacity="0" fill-opacity="0"/><text font-family="Verdana" font-size="10.8" font-style="normal" font-weight="normal" fill="#000000" style="cursor: move; opacity: 1;" visibility="visible" y="6.57" x="6.83"><tspan dy="1em" x="6.83">Assignation à gauche</tspan></text><ellipse width="6" height="6" rx="3" ry="3" cx="5" cy="5" stroke-width="2" stroke="#96e3ff" stroke-dasharray="" stroke-linecap="" fill="#faffff" style="cursor: default; opacity: 0;" visibility="hidden"/><g preserveAspectRatio="none" focusable="true" width="0" height="17"/></g><g preserveAspectRatio="none" focusable="true" width="100" height="100" transform="translate(515.40,-99.67) scale(1.00,1.00)" test-id="29" visibility="visible" style="opacity: 1;"><rect width="121" height="31" rx="9" ry="9" x="-3" y="-3" stroke-width="1" stroke="#dcffff" stroke-dasharray="" stroke-linecap="" fill="#dcffff" stroke-opacity="0" fill-opacity="0"/><text font-family="Verdana" font-size="10.8" font-style="normal" font-weight="normal" fill="#000000" style="cursor: move; opacity: 1;" visibility="visible" y="6.33" x="6.59"><tspan dy="1em" x="6.59">Evaluation à droite</tspan></text><ellipse width="6" height="6" rx="3" ry="3" cx="5" cy="5" stroke-width="2" stroke="#96e3ff" stroke-dasharray="" stroke-linecap="" fill="#faffff" style="cursor: default; opacity: 0;" visibility="hidden"/><g preserveAspectRatio="none" focusable="true" width="0" height="16"/></g><g preserveAspectRatio="none" focusable="true" width="100" height="100" transform="translate(292.21,-31.02) scale(1.00,1.00)" test-id="13" visibility="visible" style="opacity: 1;"><rect width="120" height="32" rx="10" ry="10" x="-3" y="-3" stroke-width="1" stroke="#dcffff" stroke-dasharray="" stroke-linecap="" fill="#dcffff" stroke-opacity="0" fill-opacity="0"/><text font-family="Verdana" font-size="10.8" font-style="normal" font-weight="normal" fill="#000000" style="cursor: move; opacity: 1;" visibility="visible" y="6.51" x="6.77"><tspan dy="1em" x="6.77">Types de variables</tspan></text><ellipse width="6" height="6" rx="3" ry="3" cx="117" cy="13" stroke-width="2" stroke="#96e3ff" stroke-dasharray="" stroke-linecap="" fill="#faffff" style="cursor: default; opacity: 1;" visibility="visible"/><g preserveAspectRatio="none" focusable="true" width="0" height="17"/></g><g preserveAspectRatio="none" focusable="true" width="100" height="100" transform="translate(435.43,-66.67) scale(1.00,1.00)" test-id="16" visibility="visible" style="opacity: 1;"><rect width="131" height="31" rx="9" ry="9" x="-3" y="-3" stroke-width="1" stroke="#dcffff" stroke-dasharray="" stroke-linecap="" fill="#dcffff" stroke-opacity="0" fill-opacity="0"/><text font-family="Verdana" font-size="10.8" font-style="normal" font-weight="normal" fill="#000000" style="cursor: move; opacity: 1;" visibility="visible" y="6.33" x="6.59"><tspan dy="1em" x="6.59">chaîne de caractères</tspan></text><ellipse width="6" height="6" rx="3" ry="3" cx="5" cy="5" stroke-width="2" stroke="#96e3ff" stroke-dasharray="" stroke-linecap="" fill="#faffff" style="cursor: default; opacity: 0;" visibility="hidden"/><g preserveAspectRatio="none" focusable="true" width="0" height="16"/></g><g preserveAspectRatio="none" focusable="true" width="100" height="100" transform="translate(435.39,-30.67) scale(1.00,1.00)" test-id="15" visibility="visible" style="opacity: 1;"><rect width="43" height="31" rx="9" ry="9" x="-3" y="-3" stroke-width="1" stroke="#dcffff" stroke-dasharray="" stroke-linecap="" fill="#dcffff" stroke-opacity="0" fill-opacity="0"/><text font-family="Verdana" font-size="10.8" font-style="normal" font-weight="normal" fill="#000000" style="cursor: move; opacity: 1;" visibility="visible" y="6.33" x="6.59"><tspan dy="1em" x="6.59">float</tspan></text><ellipse width="6" height="6" rx="3" ry="3" cx="5" cy="5" stroke-width="2" stroke="#96e3ff" stroke-dasharray="" stroke-linecap="" fill="#faffff" style="cursor: default; opacity: 0;" visibility="hidden"/><g preserveAspectRatio="none" focusable="true" width="0" height="16"/></g><g preserveAspectRatio="none" focusable="true" width="100" height="100" transform="translate(435.99,3.87) scale(1.00,1.00)" test-id="14" visibility="visible" style="opacity: 1;"><rect width="58" height="32" rx="10" ry="10" x="-3" y="-3" stroke-width="1" stroke="#dcffff" stroke-dasharray="" stroke-linecap="" fill="#dcffff" stroke-opacity="0" fill-opacity="0"/><text font-family="Verdana" font-size="10.8" font-style="normal" font-weight="normal" fill="#000000" style="cursor: move; opacity: 1;" visibility="visible" y="6.57" x="6.83"><tspan dy="1em" x="6.83">integer</tspan></text><ellipse width="6" height="6" rx="3" ry="3" cx="5" cy="5" stroke-width="2" stroke="#96e3ff" stroke-dasharray="" stroke-linecap="" fill="#faffff" style="cursor: default; opacity: 0;" visibility="hidden"/><g preserveAspectRatio="none" focusable="true" width="0" height="17"/></g><g preserveAspectRatio="none" focusable="true" width="100" height="100" transform="translate(292.45,40.33) scale(1.00,1.00)" test-id="12" visibility="visible" style="opacity: 1;"><rect width="103" height="31" rx="9" ry="9" x="-3" y="-3" stroke-width="1" stroke="#dcffff" stroke-dasharray="" stroke-linecap="" fill="#dcffff" stroke-opacity="0" fill-opacity="0"/><text font-family="Verdana" font-size="10.8" font-style="normal" font-weight="normal" fill="#000000" style="cursor: move; opacity: 1;" visibility="visible" y="6.33" x="6.59"><tspan dy="1em" x="6.59">Différents états</tspan></text><ellipse width="6" height="6" rx="3" ry="3" cx="5" cy="5" stroke-width="2" stroke="#96e3ff" stroke-dasharray="" stroke-linecap="" fill="#faffff" style="cursor: default; opacity: 0;" visibility="hidden"/><g preserveAspectRatio="none" focusable="true" width="0" height="16"/></g><g preserveAspectRatio="none" focusable="true" width="100" height="100" transform="translate(-336.88,-50.47) scale(1.00,1.00)" test-id="3" visibility="visible" style="opacity: 1;"><rect width="151" height="35" rx="11" ry="11" x="-3" y="-3" stroke-width="1" stroke="#ffa8d2" stroke-dasharray="" stroke-linecap="" fill="#ffa8d2" stroke-opacity="0" fill-opacity="0"/><rect width="145" height="29" rx="9" ry="9" x="0" y="0" stroke-width="2" stroke="#E5628C" stroke-dasharray="" stroke-linecap="" fill="#E5628C" style="cursor: move; opacity: 1;" visibility="visible"/><text font-family="Verdana" font-size="12.1" font-style="normal" font-weight="normal" fill="#000000" style="cursor: move; opacity: 1;" visibility="visible" y="7.33" x="7.63"><tspan dy="1em" x="7.63">Arithmétique de base</tspan></text><ellipse width="6" height="6" rx="3" ry="3" cx="-3" cy="15" stroke-width="2" stroke="#E5628C" stroke-dasharray="" stroke-linecap="" fill="#ffc6f0" style="cursor: default; opacity: 1;" visibility="visible"/><g preserveAspectRatio="none" focusable="true" width="0" height="19"/></g><g preserveAspectRatio="none" focusable="true" width="100" height="100" transform="translate(-510.92,-154.93) scale(1.00,1.00)" test-id="26" visibility="visible" style="opacity: 1;"><rect width="150" height="32" rx="10" ry="10" x="-3" y="-3" stroke-width="1" stroke="#dcffff" stroke-dasharray="" stroke-linecap="" fill="#dcffff" stroke-opacity="0" fill-opacity="0"/><text font-family="Verdana" font-size="10.8" font-style="normal" font-weight="normal" fill="#000000" style="cursor: move; opacity: 1;" visibility="visible" y="6.57" x="6.83"><tspan dy="1em" x="6.83">Régles de parenthésage</tspan></text><ellipse width="6" height="6" rx="3" ry="3" cx="5" cy="5" stroke-width="2" stroke="#96e3ff" stroke-dasharray="" stroke-linecap="" fill="#faffff" style="cursor: default; opacity: 0;" visibility="hidden"/><g preserveAspectRatio="none" focusable="true" width="0" height="17"/></g><g preserveAspectRatio="none" focusable="true" width="100" height="100" transform="translate(-478.95,-83.33) scale(1.00,1.00)" test-id="20" visibility="visible" style="opacity: 1;"><rect width="118" height="31" rx="9" ry="9" x="-3" y="-3" stroke-width="1" stroke="#dcffff" stroke-dasharray="" stroke-linecap="" fill="#dcffff" stroke-opacity="0" fill-opacity="0"/><text font-family="Verdana" font-size="10.8" font-style="normal" font-weight="normal" fill="#000000" style="cursor: move; opacity: 1;" visibility="visible" y="6.33" x="6.59"><tspan dy="1em" x="6.59">Plusieurs divisions</tspan></text><ellipse width="6" height="6" rx="3" ry="3" cx="-3" cy="13" stroke-width="2" stroke="#96e3ff" stroke-dasharray="" stroke-linecap="" fill="#faffff" style="cursor: default; opacity: 1;" visibility="visible"/><g preserveAspectRatio="none" focusable="true" width="0" height="16"/></g><g preserveAspectRatio="none" focusable="true" width="100" height="100" transform="translate(-533.74,-118.67) scale(1.00,1.00)" test-id="23" visibility="visible" style="opacity: 1;"><rect width="31" height="31" rx="9" ry="9" x="-3" y="-3" stroke-width="1" stroke="#dcffff" stroke-dasharray="" stroke-linecap="" fill="#dcffff" stroke-opacity="0" fill-opacity="0"/><text font-family="Verdana" font-size="10.8" font-style="normal" font-weight="normal" fill="#000000" style="cursor: move; opacity: 1;" visibility="visible" y="6.33" x="6.59"><tspan dy="1em" x="6.59">%</tspan></text><ellipse width="6" height="6" rx="3" ry="3" cx="5" cy="5" stroke-width="2" stroke="#96e3ff" stroke-dasharray="" stroke-linecap="" fill="#faffff" style="cursor: default; opacity: 0;" visibility="hidden"/><g preserveAspectRatio="none" focusable="true" width="0" height="16"/></g><g preserveAspectRatio="none" focusable="true" width="100" height="100" transform="translate(-532.24,-83.33) scale(1.00,1.00)" test-id="22" visibility="visible" style="opacity: 1;"><rect width="29" height="31" rx="9" ry="9" x="-3" y="-3" stroke-width="1" stroke="#dcffff" stroke-dasharray="" stroke-linecap="" fill="#dcffff" stroke-opacity="0" fill-opacity="0"/><text font-family="Verdana" font-size="10.8" font-style="normal" font-weight="normal" fill="#000000" style="cursor: move; opacity: 1;" visibility="visible" y="6.33" x="6.59"><tspan dy="1em" x="6.59">//</tspan></text><ellipse width="6" height="6" rx="3" ry="3" cx="5" cy="5" stroke-width="2" stroke="#96e3ff" stroke-dasharray="" stroke-linecap="" fill="#faffff" style="cursor: default; opacity: 0;" visibility="hidden"/><g preserveAspectRatio="none" focusable="true" width="0" height="16"/></g><g preserveAspectRatio="none" focusable="true" width="100" height="100" transform="translate(-527.34,-48.00) scale(1.00,1.00)" test-id="21" visibility="visible" style="opacity: 1;"><rect width="24" height="31" rx="7" ry="7" x="-3" y="-3" stroke-width="1" stroke="#dcffff" stroke-dasharray="" stroke-linecap="" fill="#dcffff" stroke-opacity="0" fill-opacity="0"/><text font-family="Verdana" font-size="10.8" font-style="normal" font-weight="normal" fill="#000000" style="cursor: move; opacity: 1;" visibility="visible" y="6.33" x="6.59"><tspan dy="1em" x="6.59">/</tspan></text><ellipse width="6" height="6" rx="3" ry="3" cx="5" cy="5" stroke-width="2" stroke="#96e3ff" stroke-dasharray="" stroke-linecap="" fill="#faffff" style="cursor: default; opacity: 0;" visibility="hidden"/><g preserveAspectRatio="none" focusable="true" width="0" height="16"/></g><g preserveAspectRatio="none" focusable="true" width="100" height="100" transform="translate(-386.92,-12.67) scale(1.00,1.00)" test-id="19" visibility="visible" style="opacity: 1;"><rect width="26" height="31" rx="8" ry="8" x="-3" y="-3" stroke-width="1" stroke="#dcffff" stroke-dasharray="" stroke-linecap="" fill="#dcffff" stroke-opacity="0" fill-opacity="0"/><text font-family="Verdana" font-size="10.8" font-style="normal" font-weight="normal" fill="#000000" style="cursor: move; opacity: 1;" visibility="visible" y="6.33" x="6.59"><tspan dy="1em" x="6.59">*</tspan></text><ellipse width="6" height="6" rx="3" ry="3" cx="5" cy="5" stroke-width="2" stroke="#96e3ff" stroke-dasharray="" stroke-linecap="" fill="#faffff" style="cursor: default; opacity: 0;" visibility="hidden"/><g preserveAspectRatio="none" focusable="true" width="0" height="16"/></g><g preserveAspectRatio="none" focusable="true" width="100" height="100" transform="translate(-384.95,22.67) scale(1.00,1.00)" test-id="18" visibility="visible" style="opacity: 1;"><rect width="24" height="31" rx="7" ry="7" x="-3" y="-3" stroke-width="1" stroke="#dcffff" stroke-dasharray="" stroke-linecap="" fill="#dcffff" stroke-opacity="0" fill-opacity="0"/><text font-family="Verdana" font-size="10.8" font-style="normal" font-weight="normal" fill="#000000" style="cursor: move; opacity: 1;" visibility="visible" y="6.33" x="6.59"><tspan dy="1em" x="6.59">-</tspan></text><ellipse width="6" height="6" rx="3" ry="3" cx="5" cy="5" stroke-width="2" stroke="#96e3ff" stroke-dasharray="" stroke-linecap="" fill="#faffff" style="cursor: default; opacity: 0;" visibility="hidden"/><g preserveAspectRatio="none" focusable="true" width="0" height="16"/></g><g preserveAspectRatio="none" focusable="true" width="100" height="100" transform="translate(-388.88,58.00) scale(1.00,1.00)" test-id="17" visibility="visible" style="opacity: 1;"><rect width="28" height="31" rx="8" ry="8" x="-3" y="-3" stroke-width="1" stroke="#dcffff" stroke-dasharray="" stroke-linecap="" fill="#dcffff" stroke-opacity="0" fill-opacity="0"/><text font-family="Verdana" font-size="10.8" font-style="normal" font-weight="normal" fill="#000000" style="cursor: move; opacity: 1;" visibility="visible" y="6.33" x="6.59"><tspan dy="1em" x="6.59">+</tspan></text><ellipse width="6" height="6" rx="3" ry="3" cx="5" cy="5" stroke-width="2" stroke="#96e3ff" stroke-dasharray="" stroke-linecap="" fill="#faffff" style="cursor: default; opacity: 0;" visibility="hidden"/><g preserveAspectRatio="none" focusable="true" width="0" height="16"/></g><g preserveAspectRatio="none" focusable="true" width="100" height="100" transform="translate(191.68,92.33) scale(1.00,1.00)" test-id="5" visibility="visible" style="opacity: 1;"><rect width="203" height="35" rx="11" ry="11" x="-3" y="-3" stroke-width="1" stroke="#ff9776" stroke-dasharray="" stroke-linecap="" fill="#ff9776" stroke-opacity="0" fill-opacity="0"/><rect width="197" height="29" rx="9" ry="9" x="0" y="0" stroke-width="2" stroke="#EB5130" stroke-dasharray="" stroke-linecap="" fill="#EB5130" style="cursor: move; opacity: 1;" visibility="visible"/><text font-family="Verdana" font-size="12.1" font-style="normal" font-weight="normal" fill="#000000" style="cursor: move; opacity: 1;" visibility="visible" y="7.33" x="7.63"><tspan dy="1em" x="7.63">Interractions avec l'utilisateur</tspan></text><ellipse width="6" height="6" rx="3" ry="3" cx="200" cy="15" stroke-width="2" stroke="#EB5130" stroke-dasharray="" stroke-linecap="" fill="#ffb594" style="cursor: default; opacity: 1;" visibility="visible"/><g preserveAspectRatio="none" focusable="true" width="0" height="19"/></g><g preserveAspectRatio="none" focusable="true" width="100" height="100" transform="translate(418.31,76.33) scale(1.00,1.00)" test-id="7" visibility="visible" style="opacity: 1;"><rect width="51" height="31" rx="9" ry="9" x="-3" y="-3" stroke-width="1" stroke="#dcffff" stroke-dasharray="" stroke-linecap="" fill="#dcffff" stroke-opacity="0" fill-opacity="0"/><text font-family="Verdana" font-size="10.8" font-style="normal" font-weight="normal" fill="#000000" style="cursor: move; opacity: 1;" visibility="visible" y="6.33" x="6.59"><tspan dy="1em" x="6.59">Sortie</tspan></text><ellipse width="6" height="6" rx="3" ry="3" cx="48" cy="13" stroke-width="2" stroke="#96e3ff" stroke-dasharray="" stroke-linecap="" fill="#faffff" style="cursor: default; opacity: 1;" visibility="visible"/><g preserveAspectRatio="none" focusable="true" width="0" height="16"/></g><g preserveAspectRatio="none" focusable="true" width="100" height="100" transform="translate(493.69,75.40) scale(1.00,1.00)" test-id="8" visibility="visible" style="opacity: 1;"><rect width="103" height="32" rx="10" ry="10" x="-3" y="-3" stroke-width="1" stroke="#dcffff" stroke-dasharray="" stroke-linecap="" fill="#dcffff" stroke-opacity="0" fill-opacity="0"/><text font-family="Verdana" font-size="10.8" font-style="normal" font-weight="normal" fill="#000000" style="cursor: move; opacity: 1;" visibility="visible" y="6.57" x="6.83"><tspan dy="1em" x="6.83">Affichage écran</tspan></text><ellipse width="6" height="6" rx="3" ry="3" cx="100" cy="13" stroke-width="2" stroke="#96e3ff" stroke-dasharray="" stroke-linecap="" fill="#faffff" style="cursor: default; opacity: 1;" visibility="visible"/><g preserveAspectRatio="none" focusable="true" width="0" height="17"/></g><g preserveAspectRatio="none" focusable="true" width="100" height="100" transform="translate(621.01,75.63) scale(1.00,1.00)" test-id="9" visibility="visible" style="opacity: 1;"><rect width="55" height="32" rx="10" ry="10" x="-3" y="-3" stroke-width="1" stroke="#dcffff" stroke-dasharray="" stroke-linecap="" fill="#dcffff" stroke-opacity="0" fill-opacity="0"/><text font-family="Verdana" font-size="10.8" font-style="normal" font-weight="normal" fill="#000000" style="cursor: move; opacity: 1;" visibility="visible" y="6.51" x="6.77"><tspan dy="1em" x="6.77">print()</tspan></text><ellipse width="6" height="6" rx="3" ry="3" cx="5" cy="5" stroke-width="2" stroke="#96e3ff" stroke-dasharray="" stroke-linecap="" fill="#faffff" style="cursor: default; opacity: 0;" visibility="hidden"/><g preserveAspectRatio="none" focusable="true" width="0" height="17"/></g><g preserveAspectRatio="none" focusable="true" width="100" height="100" transform="translate(418.71,112.33) scale(1.00,1.00)" test-id="6" visibility="visible" style="opacity: 1;"><rect width="55" height="31" rx="9" ry="9" x="-3" y="-3" stroke-width="1" stroke="#dcffff" stroke-dasharray="" stroke-linecap="" fill="#dcffff" stroke-opacity="0" fill-opacity="0"/><text font-family="Verdana" font-size="10.8" font-style="normal" font-weight="normal" fill="#000000" style="cursor: move; opacity: 1;" visibility="visible" y="6.33" x="6.59"><tspan dy="1em" x="6.59">Entrée</tspan></text><ellipse width="6" height="6" rx="3" ry="3" cx="52" cy="13" stroke-width="2" stroke="#96e3ff" stroke-dasharray="" stroke-linecap="" fill="#faffff" style="cursor: default; opacity: 1;" visibility="visible"/><g preserveAspectRatio="none" focusable="true" width="0" height="16"/></g><g preserveAspectRatio="none" focusable="true" width="100" height="100" transform="translate(496.83,112.33) scale(1.00,1.00)" test-id="10" visibility="visible" style="opacity: 1;"><rect width="90" height="31" rx="9" ry="9" x="-3" y="-3" stroke-width="1" stroke="#dcffff" stroke-dasharray="" stroke-linecap="" fill="#dcffff" stroke-opacity="0" fill-opacity="0"/><text font-family="Verdana" font-size="10.8" font-style="normal" font-weight="normal" fill="#000000" style="cursor: move; opacity: 1;" visibility="visible" y="6.33" x="6.59"><tspan dy="1em" x="6.59">Saisie clavier</tspan></text><ellipse width="6" height="6" rx="3" ry="3" cx="87" cy="13" stroke-width="2" stroke="#96e3ff" stroke-dasharray="" stroke-linecap="" fill="#faffff" style="cursor: default; opacity: 1;" visibility="visible"/><g preserveAspectRatio="none" focusable="true" width="0" height="16"/></g><g preserveAspectRatio="none" focusable="true" width="100" height="100" transform="translate(611.52,111.98) scale(1.00,1.00)" test-id="11" visibility="visible" style="opacity: 1;"><rect width="57" height="32" rx="10" ry="10" x="-3" y="-3" stroke-width="1" stroke="#dcffff" stroke-dasharray="" stroke-linecap="" fill="#dcffff" stroke-opacity="0" fill-opacity="0"/><text font-family="Verdana" font-size="10.8" font-style="normal" font-weight="normal" fill="#000000" style="cursor: move; opacity: 1;" visibility="visible" y="6.51" x="6.77"><tspan dy="1em" x="6.77">input()</tspan></text><ellipse width="6" height="6" rx="3" ry="3" cx="5" cy="5" stroke-width="2" stroke="#96e3ff" stroke-dasharray="" stroke-linecap="" fill="#faffff" style="cursor: default; opacity: 0;" visibility="hidden"/><g preserveAspectRatio="none" focusable="true" width="0" height="17"/></g><g preserveAspectRatio="none" focusable="true" width="100" height="100" transform="translate(-332.48,109.47) scale(1.00,1.00)" test-id="4" visibility="visible" style="opacity: 1;"><rect width="147" height="35" rx="11" ry="11" x="-3" y="-3" stroke-width="1" stroke="#fff483" stroke-dasharray="" stroke-linecap="" fill="#fff483" stroke-opacity="0" fill-opacity="0"/><rect width="141" height="29" rx="9" ry="9" x="0" y="0" stroke-width="2" stroke="#F3AE3D" stroke-dasharray="" stroke-linecap="" fill="#F3AE3D" style="cursor: move; opacity: 1;" visibility="visible"/><text font-family="Verdana" font-size="12.1" font-style="normal" font-weight="normal" fill="#000000" style="cursor: move; opacity: 1;" visibility="visible" y="7.33" x="7.63"><tspan dy="1em" x="7.63">2 modes d'exécution</tspan></text><ellipse width="6" height="6" rx="3" ry="3" cx="-3" cy="15" stroke-width="2" stroke="#F3AE3D" stroke-dasharray="" stroke-linecap="" fill="#ffffa1" style="cursor: default; opacity: 1;" visibility="visible"/><g preserveAspectRatio="none" focusable="true" width="0" height="19"/></g><g preserveAspectRatio="none" focusable="true" width="100" height="100" transform="translate(-471.72,93.33) scale(1.00,1.00)" test-id="24" visibility="visible" style="opacity: 1;"><rect width="115" height="32" rx="10" ry="10" x="-3" y="-3" stroke-width="1" stroke="#dcffff" stroke-dasharray="" stroke-linecap="" fill="#dcffff" stroke-opacity="0" fill-opacity="0"/><text font-family="Verdana" font-size="10.8" font-style="normal" font-weight="normal" fill="#000000" style="cursor: move; opacity: 1;" visibility="visible" y="6.57" x="6.83"><tspan dy="1em" x="6.83">Mode programme</tspan></text><ellipse width="6" height="6" rx="3" ry="3" cx="5" cy="5" stroke-width="2" stroke="#96e3ff" stroke-dasharray="" stroke-linecap="" fill="#faffff" style="cursor: default; opacity: 0;" visibility="hidden"/><g preserveAspectRatio="none" focusable="true" width="0" height="17"/></g><g preserveAspectRatio="none" focusable="true" width="100" height="100" transform="translate(-461.62,129.60) scale(1.00,1.00)" test-id="25" visibility="visible" style="opacity: 1;"><rect width="105" height="31" rx="9" ry="9" x="-3" y="-3" stroke-width="1" stroke="#dcffff" stroke-dasharray="" stroke-linecap="" fill="#dcffff" stroke-opacity="0" fill-opacity="0"/><text font-family="Verdana" font-size="10.8" font-style="normal" font-weight="normal" fill="#000000" style="cursor: move; opacity: 1;" visibility="visible" y="6.33" x="6.59"><tspan dy="1em" x="6.59">Mode interractif</tspan></text><ellipse width="6" height="6" rx="3" ry="3" cx="5" cy="5" stroke-width="2" stroke="#96e3ff" stroke-dasharray="" stroke-linecap="" fill="#faffff" style="cursor: default; opacity: 0;" visibility="hidden"/><g preserveAspectRatio="none" focusable="true" width="0" height="16"/></g></svg>